<?xml version="1.0" encoding="UTF-8"?>
<svg width="65px" height="40px" viewBox="0 0 65 40" version="1.1" xmlns="http://www.w3.org/2000/svg" xmlns:xlink="http://www.w3.org/1999/xlink">
    <!-- Generator: Sketch 46.2 (44496) - http://www.bohemiancoding.com/sketch -->
    <title>bancontact</title>
    <desc>Created with Sketch.</desc>
    <defs></defs>
    <g id="Footer" stroke="none" stroke-width="1" fill="none" fill-rule="evenodd">
        <g id="bancontact" fill-rule="nonzero" fill="#346275">
            <g id="logo">
                <path d="M64.4229299,39.571465 L64.4229299,38.6219108 C64.4229299,38.4840764 64.3370701,38.4150318 64.1653503,38.4150318 L63.5640764,38.4150318 C63.3757962,38.4150318 63.2614013,38.3803822 63.2206369,38.310828 C63.1796178,38.2415287 63.1592357,38.0838217 63.1592357,37.8384713 L63.1592357,34.2680255 L64.1653503,34.2680255 C64.2305732,34.2680255 64.2878981,34.2433121 64.3370701,34.1938854 C64.3859873,34.1444586 64.4107006,34.0866242 64.4107006,34.0206369 L64.4107006,33.0185987 C64.4107006,32.9528662 64.3859873,32.8947771 64.3370701,32.8453503 C64.2878981,32.7959236 64.2305732,32.7712102 64.1653503,32.7712102 L63.1592357,32.7712102 L63.1592357,31.4705732 C63.1592357,31.4053503 63.1388535,31.3541401 63.0980892,31.3171975 C63.0575796,31.2805096 63.004586,31.2621656 62.9396178,31.2621656 L62.9029299,31.2621656 L61.4152866,31.5197452 C61.3500637,31.5363057 61.2932484,31.5648408 61.244586,31.6056051 C61.1959236,31.6466242 61.171465,31.6996178 61.171465,31.7650955 L61.171465,32.7712102 L60.1900637,32.7712102 C60.1243312,32.7712102 60.0652229,32.7979618 60.0119745,32.8509554 C59.9587261,32.9042038 59.9322293,32.9635669 59.9322293,33.0287898 L59.9322293,33.8387261 C59.9322293,33.9042038 59.9587261,33.9594904 60.0119745,34.0043312 C60.0652229,34.0494268 60.1243312,34.08 60.1900637,34.0963057 L61.171465,34.2557962 L61.171465,37.8140127 C61.171465,38.2476433 61.2163057,38.6012739 61.3054777,38.8751592 C61.3949045,39.1492994 61.5250955,39.3640764 61.6957962,39.5194904 C61.8664968,39.6749045 62.0797452,39.7791083 62.336051,39.8323567 C62.5921019,39.8853503 62.886879,39.9121019 63.2206369,39.9121019 C63.4002548,39.9121019 63.5597452,39.9036943 63.6991083,39.8876433 C63.8379618,39.8713376 64.0015287,39.8471338 64.1898089,39.8145223 C64.3449682,39.7905732 64.4229299,39.7092994 64.4229299,39.571465 L64.4229299,39.571465 Z M59.1347771,39.4458599 L59.1347771,38.3538854 C59.1347771,38.2884076 59.1121019,38.2371975 59.0672611,38.2005096 C59.0221656,38.1635669 58.9671338,38.1452229 58.9016561,38.1452229 L58.8771975,38.1452229 C58.6481529,38.1696815 58.4292994,38.1903185 58.2206369,38.2066242 C58.0122293,38.2229299 57.7319745,38.2310828 57.3803822,38.2310828 C57.2410191,38.2310828 57.1103185,38.2086624 56.9877707,38.1635669 C56.8649682,38.1187261 56.7584713,38.0410191 56.668535,37.9304459 C56.5785987,37.8201274 56.5070064,37.6728662 56.4540127,37.4889172 C56.4005096,37.3047134 56.3742675,37.077707 56.3742675,36.8078981 L56.3742675,35.7773248 C56.3742675,35.5072611 56.4005096,35.2802548 56.4540127,35.0963057 C56.5070064,34.9121019 56.5785987,34.7650955 56.668535,34.6545223 C56.7584713,34.5442038 56.8649682,34.4664968 56.9877707,34.4214013 C57.1103185,34.3765605 57.2410191,34.3538854 57.3803822,34.3538854 C57.7319745,34.3538854 58.0122293,34.362293 58.2206369,34.3785987 C58.4292994,34.3949045 58.6481529,34.4152866 58.8771975,34.4397452 L58.9016561,34.4397452 C58.9671338,34.4397452 59.0221656,34.4214013 59.0672611,34.3847134 C59.1121019,34.3477707 59.1347771,34.2968153 59.1347771,34.2313376 L59.1347771,33.1393631 C59.1347771,33.0494268 59.1143949,32.9859873 59.0733758,32.9490446 C59.0323567,32.9123567 58.9671338,32.8815287 58.8771975,32.8570701 C58.7054777,32.8163057 58.482293,32.7755414 58.2084076,32.7342675 C57.9342675,32.6935032 57.6135032,32.673121 57.2453503,32.673121 C56.3780892,32.673121 55.6850955,32.9388535 55.1656051,33.4705732 C54.6461146,34.002293 54.3864968,34.7712102 54.3864968,35.7773248 L54.3864968,36.8078981 C54.3864968,37.8140127 54.6461146,38.5829299 55.1656051,39.1143949 C55.6850955,39.6463694 56.3780892,39.9121019 57.2453503,39.9121019 C57.6135032,39.9121019 57.9342675,39.891465 58.2084076,39.8507006 C58.482293,39.8096815 58.7054777,39.7689172 58.8771975,39.7278981 C58.9671338,39.7034395 59.0323567,39.6728662 59.0733758,39.6359236 C59.1143949,39.5992357 59.1347771,39.5357962 59.1347771,39.4458599 L59.1347771,39.4458599 Z M51.1475159,38.1452229 C51.0002548,38.2188535 50.8425478,38.282293 50.6751592,38.3352866 C50.5072611,38.3887898 50.3294268,38.4150318 50.1414013,38.4150318 C49.8794904,38.4150318 49.6853503,38.3783439 49.5584713,38.3047134 C49.4315924,38.2310828 49.3684076,38.0634395 49.3684076,37.8017834 L49.3684076,37.6912102 C49.3684076,37.543949 49.3847134,37.4132484 49.4175796,37.2985987 C49.4499363,37.1842038 49.5072611,37.0899363 49.5892994,37.0163057 C49.670828,36.9429299 49.7814013,36.8876433 49.9205096,36.8507006 C50.0596178,36.8140127 50.235414,36.7956688 50.4481529,36.7956688 L51.1475159,36.7956688 L51.1475159,38.1452229 Z M53.0983439,35.176051 C53.0983439,34.7263694 53.030828,34.3436943 52.8957962,34.0287898 C52.7607643,33.7141401 52.5707006,33.4563057 52.3253503,33.2557962 C52.08,33.0555414 51.7793631,32.9082803 51.4234395,32.8142675 C51.0677707,32.7202548 50.6690446,32.673121 50.2272611,32.673121 C49.8180892,32.673121 49.4193631,32.7019108 49.0310828,32.7589809 C48.642293,32.8163057 48.3335032,32.8736306 48.1047134,32.9307006 C47.9490446,32.9717197 47.8715924,33.0616561 47.8715924,33.2005096 L47.8715924,34.1943949 C47.8715924,34.2764331 47.8917197,34.333758 47.9327389,34.3661146 C47.973758,34.3989809 48.0267516,34.4152866 48.0922293,34.4152866 L48.1536306,34.4152866 C48.2519745,34.4071338 48.3745223,34.3969427 48.5217834,34.3847134 C48.6690446,34.3724841 48.8346497,34.362293 49.0185987,34.3538854 C49.2028025,34.3459873 49.3949045,34.3398726 49.595414,34.3355414 C49.7956688,34.331465 49.9941401,34.3294268 50.1903185,34.3294268 C50.4766879,34.3294268 50.7016561,34.3826752 50.8652229,34.4889172 C51.0287898,34.595414 51.1105732,34.8244586 51.1105732,35.176051 L51.1105732,35.6178344 L50.4481529,35.6178344 C49.3928662,35.6178344 48.6259873,35.7834395 48.1475159,36.1146497 C47.6690446,36.4458599 47.4298089,36.971465 47.4298089,37.6912102 L47.4298089,37.8017834 C47.4298089,38.2025478 47.4889172,38.5378344 47.6076433,38.8076433 C47.7261146,39.077707 47.8838217,39.2945223 48.08,39.4580892 C48.2764331,39.6216561 48.4991083,39.7383439 48.7487898,39.8076433 C48.9982166,39.8771975 49.2578344,39.9121019 49.5278981,39.9121019 C49.896051,39.9121019 50.2127389,39.8629299 50.4787261,39.7648408 C50.7444586,39.6667516 50.9959236,39.5317197 51.2333758,39.36 L51.2333758,39.5561783 C51.2333758,39.6216561 51.2578344,39.6789809 51.3070064,39.7278981 C51.3559236,39.7770701 51.4132484,39.8015287 51.4787261,39.8015287 L52.8529936,39.8015287 C52.9182166,39.8015287 52.9755414,39.7770701 53.0247134,39.7278981 C53.0736306,39.6789809 53.0983439,39.6216561 53.0983439,39.5561783 L53.0983439,35.176051 L53.0983439,35.176051 Z M46.5464968,39.571465 L46.5464968,38.6219108 C46.5464968,38.4840764 46.4606369,38.4150318 46.2889172,38.4150318 L45.6876433,38.4150318 C45.4993631,38.4150318 45.3849682,38.3803822 45.3442038,38.310828 C45.3031847,38.2415287 45.2828025,38.0838217 45.2828025,37.8384713 L45.2828025,34.2680255 L46.2889172,34.2680255 C46.3541401,34.2680255 46.411465,34.2433121 46.4606369,34.1938854 C46.5098089,34.1444586 46.5342675,34.0866242 46.5342675,34.0206369 L46.5342675,33.0185987 C46.5342675,32.9528662 46.5098089,32.8947771 46.4606369,32.8453503 C46.411465,32.7959236 46.3541401,32.7712102 46.2889172,32.7712102 L45.2828025,32.7712102 L45.2828025,31.4705732 C45.2828025,31.4053503 45.2624204,31.3541401 45.2219108,31.3171975 C45.1811465,31.2805096 45.1281529,31.2621656 45.0631847,31.2621656 L45.0267516,31.2621656 L43.5391083,31.5197452 C43.4738854,31.5363057 43.4168153,31.5648408 43.3681529,31.6056051 C43.3194904,31.6466242 43.2950318,31.6996178 43.2950318,31.7650955 L43.2950318,32.7712102 L42.3136306,32.7712102 C42.2478981,32.7712102 42.1887898,32.7979618 42.1355414,32.8509554 C42.082293,32.9042038 42.0557962,32.9635669 42.0557962,33.0287898 L42.0557962,33.8387261 C42.0557962,33.9042038 42.082293,33.9594904 42.1355414,34.0043312 C42.1887898,34.0494268 42.2478981,34.08 42.3136306,34.0963057 L43.2950318,34.2557962 L43.2950318,37.8140127 C43.2950318,38.2476433 43.3398726,38.6012739 43.4290446,38.8751592 C43.5184713,39.1492994 43.6486624,39.3640764 43.8193631,39.5194904 C43.9900637,39.6749045 44.2035669,39.7791083 44.4596178,39.8323567 C44.7156688,39.8853503 45.0104459,39.9121019 45.3442038,39.9121019 C45.5238217,39.9121019 45.6835669,39.9036943 45.8226752,39.8876433 C45.9615287,39.8713376 46.1250955,39.8471338 46.3133758,39.8145223 C46.4687898,39.7905732 46.5464968,39.7092994 46.5464968,39.571465 L46.5464968,39.571465 Z M41.1969427,39.543949 L41.1969427,35.4580892 C41.1969427,35.0738854 41.1661146,34.7118471 41.1049682,34.3724841 C41.0435669,34.033121 40.9329936,33.7385987 40.7735032,33.4889172 C40.6140127,33.2394904 40.393121,33.0410191 40.1110828,32.8940127 C39.8287898,32.7467516 39.4670064,32.673121 39.0252229,32.673121 C38.6326115,32.673121 38.2848408,32.7205096 37.9821656,32.8152866 C37.6794904,32.9100637 37.3605096,33.0769427 37.0252229,33.3159236 L37.0252229,33.0185987 C37.0252229,32.9528662 37.0007643,32.8950318 36.9515924,32.8456051 C36.9026752,32.7961783 36.8453503,32.7712102 36.7798726,32.7712102 L35.4056051,32.7712102 C35.3401274,32.7712102 35.2830573,32.7956688 35.2338854,32.8448408 C35.1849682,32.8940127 35.1602548,32.9513376 35.1602548,33.0165605 L35.1602548,39.543949 C35.1602548,39.6094268 35.1867516,39.6687898 35.24,39.7217834 C35.2932484,39.7750318 35.3523567,39.8015287 35.4180892,39.8015287 L36.9026752,39.8015287 C36.9678981,39.8015287 37.0252229,39.7750318 37.0743949,39.7220382 C37.1233121,39.6690446 37.1480255,39.6099363 37.1480255,39.5444586 L37.1480255,34.7210191 C37.3605096,34.606879 37.5610191,34.513121 37.7490446,34.4397452 C37.9373248,34.3661146 38.1212739,34.3294268 38.3014013,34.3294268 C38.4894268,34.3294268 38.6428025,34.3477707 38.7612739,34.3847134 C38.8797452,34.4214013 38.9719745,34.484586 39.0374522,34.5745223 C39.1029299,34.6642038 39.1477707,34.7824204 39.1724841,34.929172 C39.1969427,35.0761783 39.209172,35.2557962 39.209172,35.4680255 L39.209172,39.5444586 C39.209172,39.6099363 39.2338854,39.6690446 39.2828025,39.7220382 C39.3319745,39.7750318 39.3890446,39.8015287 39.4545223,39.8015287 L40.9391083,39.8015287 C41.004586,39.8015287 41.063949,39.7750318 41.1171975,39.7217834 C41.1701911,39.6687898 41.1969427,39.6094268 41.1969427,39.543949 L41.1969427,39.543949 Z M31.9090446,36.7220382 C31.9090446,37.7281529 31.5470064,38.2310828 30.8231847,38.2310828 C30.4652229,38.2310828 30.1928662,38.1044586 30.0058599,37.8507006 C29.8185987,37.5971975 29.7250955,37.2208917 29.7250955,36.7220382 L29.7250955,35.8631847 C29.7250955,35.3643312 29.8185987,34.9900637 30.0058599,34.7403822 C30.1928662,34.4909554 30.4652229,34.3661146 30.8231847,34.3661146 C31.5470064,34.3661146 31.9090446,34.8652229 31.9090446,35.8631847 L31.9090446,36.7220382 Z M33.8968153,35.8631847 C33.8968153,35.3722293 33.8290446,34.9307006 33.693758,34.5380892 C33.5584713,34.1454777 33.3617834,33.8122293 33.1036943,33.5380892 C32.8456051,33.2642038 32.5258599,33.051465 32.1449682,32.9001274 C31.7638217,32.7487898 31.3230573,32.673121 30.8231847,32.673121 C30.3233121,32.673121 29.8828025,32.7487898 29.5016561,32.9001274 C29.1205096,33.051465 28.7987261,33.2642038 28.5365605,33.5380892 C28.2741401,33.8122293 28.075414,34.1454777 27.9403822,34.5380892 C27.8048408,34.9307006 27.7373248,35.3722293 27.7373248,35.8631847 L27.7373248,36.7220382 C27.7373248,37.2127389 27.8048408,37.6545223 27.9403822,38.0471338 C28.075414,38.4397452 28.2741401,38.7729936 28.5365605,39.0471338 C28.7987261,39.3212739 29.1205096,39.533758 29.5016561,39.6850955 C29.8828025,39.8361783 30.3233121,39.9121019 30.8231847,39.9121019 C31.3230573,39.9121019 31.7638217,39.8361783 32.1449682,39.6850955 C32.5258599,39.533758 32.8456051,39.3212739 33.1036943,39.0471338 C33.3617834,38.7729936 33.5584713,38.4397452 33.693758,38.0471338 C33.8290446,37.6545223 33.8968153,37.2127389 33.8968153,36.7220382 L33.8968153,35.8631847 Z M27.0871338,39.4458599 L27.0871338,38.3538854 C27.0871338,38.2884076 27.0644586,38.2371975 27.0196178,38.2005096 C26.9745223,38.1635669 26.9192357,38.1452229 26.8540127,38.1452229 L26.8292994,38.1452229 C26.6002548,38.1696815 26.3816561,38.1903185 26.1729936,38.2066242 C25.9643312,38.2229299 25.6840764,38.2310828 25.3324841,38.2310828 C25.1933758,38.2310828 25.0626752,38.2086624 24.9398726,38.1635669 C24.8170701,38.1187261 24.710828,38.0410191 24.6208917,37.9304459 C24.5307006,37.8201274 24.4593631,37.6728662 24.4061146,37.4889172 C24.3528662,37.3047134 24.3263694,37.077707 24.3263694,36.8078981 L24.3263694,35.7773248 C24.3263694,35.5072611 24.3528662,35.2802548 24.4061146,35.0963057 C24.4593631,34.9121019 24.5307006,34.7650955 24.6208917,34.6545223 C24.710828,34.5442038 24.8170701,34.4664968 24.9398726,34.4214013 C25.0626752,34.3765605 25.1933758,34.3538854 25.3324841,34.3538854 C25.6840764,34.3538854 25.9643312,34.362293 26.1729936,34.3785987 C26.3816561,34.3949045 26.6002548,34.4152866 26.8292994,34.4397452 L26.8540127,34.4397452 C26.9192357,34.4397452 26.9745223,34.4214013 27.0196178,34.3847134 C27.0644586,34.3477707 27.0871338,34.2968153 27.0871338,34.2313376 L27.0871338,33.1393631 C27.0871338,33.0494268 27.0664968,32.9859873 27.0257325,32.9490446 C26.9847134,32.9123567 26.9192357,32.8815287 26.8292994,32.8570701 C26.6575796,32.8163057 26.4346497,32.7755414 26.1607643,32.7342675 C25.8866242,32.6935032 25.5656051,32.673121 25.1974522,32.673121 C24.3304459,32.673121 23.6371975,32.9388535 23.1179618,33.4705732 C22.5984713,34.002293 22.3388535,34.7712102 22.3388535,35.7773248 L22.3388535,36.8078981 C22.3388535,37.8140127 22.5984713,38.5829299 23.1179618,39.1143949 C23.6371975,39.6463694 24.3304459,39.9121019 25.1974522,39.9121019 C25.5656051,39.9121019 25.8866242,39.891465 26.1607643,39.8507006 C26.4346497,39.8096815 26.6575796,39.7689172 26.8292994,39.7278981 C26.9192357,39.7034395 26.9847134,39.6728662 27.0257325,39.6359236 C27.0664968,39.5992357 27.0871338,39.5357962 27.0871338,39.4458599 L27.0871338,39.4458599 Z M21.0504459,39.543949 L21.0504459,35.4580892 C21.0504459,35.0738854 21.0198726,34.7118471 20.9584713,34.3724841 C20.8970701,34.033121 20.7867516,33.7385987 20.6272611,33.4889172 C20.4677707,33.2394904 20.246879,33.0410191 19.964586,32.8940127 C19.6825478,32.7467516 19.3205096,32.673121 18.8787261,32.673121 C18.4861146,32.673121 18.1383439,32.7205096 17.8359236,32.8152866 C17.5332484,32.9100637 17.2142675,33.0769427 16.8789809,33.3159236 L16.8789809,33.0185987 C16.8789809,32.9528662 16.8542675,32.8950318 16.8053503,32.8456051 C16.7561783,32.7961783 16.6988535,32.7712102 16.6333758,32.7712102 L15.2593631,32.7712102 C15.1936306,32.7712102 15.1365605,32.7956688 15.0876433,32.8448408 C15.0384713,32.8940127 15.0140127,32.9513376 15.0140127,33.0165605 L15.0140127,39.543949 C15.0140127,39.6094268 15.0402548,39.6687898 15.093758,39.7217834 C15.1467516,39.7750318 15.2061146,39.8015287 15.2715924,39.8015287 L16.7561783,39.8015287 C16.8216561,39.8015287 16.8789809,39.7750318 16.9278981,39.7220382 C16.9770701,39.6690446 17.0015287,39.6099363 17.0015287,39.5444586 L17.0015287,34.7210191 C17.2142675,34.606879 17.4145223,34.513121 17.6028025,34.4397452 C17.790828,34.3661146 17.9747771,34.3294268 18.1549045,34.3294268 C18.3429299,34.3294268 18.4963057,34.3477707 18.6150318,34.3847134 C18.7335032,34.4214013 18.8254777,34.484586 18.8909554,34.5745223 C18.9564331,34.6642038 19.0015287,34.7824204 19.0259873,34.929172 C19.0504459,35.0761783 19.0629299,35.2557962 19.0629299,35.4680255 L19.0629299,39.5444586 C19.0629299,39.6099363 19.0873885,39.6690446 19.1365605,39.7220382 C19.1854777,39.7750318 19.2425478,39.8015287 19.3082803,39.8015287 L20.7928662,39.8015287 C20.8580892,39.8015287 20.9174522,39.7750318 20.9707006,39.7217834 C21.023949,39.6687898 21.0504459,39.6094268 21.0504459,39.543949 L21.0504459,39.543949 Z M11.590828,38.1452229 C11.4435669,38.2188535 11.2858599,38.282293 11.1184713,38.3352866 C10.9505732,38.3887898 10.7727389,38.4150318 10.5847134,38.4150318 C10.3228025,38.4150318 10.1286624,38.3783439 10.0017834,38.3047134 C9.87490446,38.2310828 9.81171975,38.0634395 9.81171975,37.8017834 L9.81171975,37.6912102 C9.81171975,37.543949 9.82802548,37.4132484 9.86089172,37.2985987 C9.89350318,37.1842038 9.95082803,37.0899363 10.0326115,37.0163057 C10.1141401,36.9429299 10.2247134,36.8876433 10.3638217,36.8507006 C10.5029299,36.8140127 10.6787261,36.7956688 10.891465,36.7956688 L11.590828,36.7956688 L11.590828,38.1452229 L11.590828,38.1452229 Z M13.5416561,35.176051 C13.5416561,34.7263694 13.4741401,34.3436943 13.3391083,34.0287898 C13.2043312,33.7141401 13.0140127,33.4563057 12.7686624,33.2557962 C12.5233121,33.0555414 12.2226752,32.9082803 11.8667516,32.8142675 C11.5110828,32.7202548 11.1123567,32.673121 10.6705732,32.673121 C10.2614013,32.673121 9.86267516,32.7019108 9.4743949,32.7589809 C9.0856051,32.8163057 8.77681529,32.8736306 8.54802548,32.9307006 C8.39261146,32.9717197 8.31490446,33.0616561 8.31490446,33.2005096 L8.31490446,34.1943949 C8.31490446,34.2764331 8.33528662,34.333758 8.37630573,34.3661146 C8.41707006,34.3989809 8.47006369,34.4152866 8.53579618,34.4152866 L8.59694268,34.4152866 C8.69528662,34.4071338 8.81783439,34.3969427 8.96509554,34.3847134 C9.11235669,34.3724841 9.27796178,34.362293 9.46216561,34.3538854 C9.64611465,34.3459873 9.83821656,34.3398726 10.0387261,34.3355414 C10.2389809,34.331465 10.4374522,34.3294268 10.6338854,34.3294268 C10.92,34.3294268 11.1449682,34.3826752 11.308535,34.4889172 C11.4721019,34.595414 11.5538854,34.8244586 11.5538854,35.176051 L11.5538854,35.6178344 L10.891465,35.6178344 C9.83617834,35.6178344 9.06929936,35.7834395 8.59082803,36.1146497 C8.11235669,36.4458599 7.87312102,36.971465 7.87312102,37.6912102 L7.87312102,37.8017834 C7.87312102,38.2025478 7.93248408,38.5378344 8.05095541,38.8076433 C8.16942675,39.077707 8.32713376,39.2945223 8.5233121,39.4580892 C8.71974522,39.6216561 8.94242038,39.7383439 9.19210191,39.8076433 C9.44152866,39.8771975 9.70140127,39.9121019 9.97121019,39.9121019 C10.3393631,39.9121019 10.6563057,39.8629299 10.9220382,39.7648408 C11.1877707,39.6667516 11.4392357,39.5317197 11.6766879,39.36 L11.6766879,39.5561783 C11.6766879,39.6216561 11.7011465,39.6789809 11.7503185,39.7278981 C11.7994904,39.7770701 11.8565605,39.8015287 11.9220382,39.8015287 L13.2963057,39.8015287 C13.3615287,39.8015287 13.4188535,39.7770701 13.4680255,39.7278981 C13.5171975,39.6789809 13.5416561,39.6216561 13.5416561,39.5561783 L13.5416561,35.176051 Z M4.78140127,37.1146497 C4.78140127,37.4580892 4.66063694,37.7240764 4.41936306,37.9121019 C4.17808917,38.1003822 3.74242038,38.1943949 3.11261146,38.1943949 L2.91031847,38.1943949 C2.81605096,38.1943949 2.71796178,38.1923567 2.61579618,38.1882803 C2.5133758,38.1842038 2.41528662,38.1819108 2.32127389,38.1819108 L2.10675159,38.1819108 L2.10675159,35.8876433 L3.48076433,35.8876433 C3.97146497,35.8876433 4.31082803,35.9961783 4.49910828,36.2127389 C4.68713376,36.4295541 4.78140127,36.6850955 4.78140127,36.9796178 L4.78140127,37.1146497 Z M4.7322293,33.4583439 C4.7322293,33.5892994 4.71184713,33.7141401 4.67082803,33.8326115 C4.62980892,33.9510828 4.56254777,34.0532484 4.46853503,34.1393631 C4.37426752,34.2252229 4.24764331,34.2947771 4.08815287,34.3477707 C3.92866242,34.4010191 3.72611465,34.4275159 3.48076433,34.4275159 L2.10675159,34.4275159 L2.10675159,32.3049682 C2.14751592,32.3049682 2.21095541,32.3029299 2.29681529,32.2988535 C2.38267516,32.2947771 2.47261146,32.2927389 2.5666242,32.2927389 L2.8366879,32.2927389 L3.03898089,32.2927389 C3.66878981,32.2927389 4.10853503,32.3724841 4.35796178,32.5319745 C4.60738854,32.691465 4.7322293,32.9388535 4.7322293,33.2741401 L4.7322293,33.4583439 Z M6.81808917,36.9796178 C6.81808917,36.5543949 6.71770701,36.186242 6.51745223,35.875414 C6.31694268,35.564586 6.05324841,35.3273885 5.72611465,35.1638217 C6.05324841,35.0002548 6.30675159,34.7587261 6.48687898,34.4397452 C6.66675159,34.1207643 6.7566879,33.7610191 6.7566879,33.3602548 L6.7566879,33.1393631 C6.7566879,32.6484076 6.66267516,32.2394904 6.47464968,31.9123567 C6.28636943,31.5852229 6.02242038,31.3233121 5.68305732,31.1271338 C5.34369427,30.9307006 4.93656051,30.7898089 4.46242038,30.7036943 C3.9877707,30.6178344 3.46038217,30.5750318 2.87949045,30.5750318 C2.6833121,30.5750318 2.47872611,30.5791083 2.26624204,30.5872611 C2.05324841,30.595414 1.84687898,30.6056051 1.6466242,30.6178344 C1.44611465,30.6300637 1.26191083,30.644586 1.09452229,30.6608917 C0.926624204,30.6774522 0.78955414,30.693758 0.683312102,30.7098089 C0.44611465,30.7510828 0.278471338,30.8244586 0.180382166,30.9307006 C0.0822929936,31.0371975 0.0331210191,31.2295541 0.0331210191,31.5075159 L0.0331210191,38.9673885 C0.0331210191,39.2453503 0.0840764331,39.437707 0.186496815,39.543949 C0.28866242,39.6504459 0.462420382,39.7238217 0.708025478,39.7648408 C0.830573248,39.7892994 0.977834395,39.8096815 1.14955414,39.826242 C1.32127389,39.8425478 1.50726115,39.8568153 1.7077707,39.8690446 C1.90828025,39.8812739 2.11464968,39.891465 2.32738854,39.8998726 C2.54012739,39.9077707 2.74853503,39.9121019 2.95312102,39.9121019 C3.48484076,39.9121019 3.98573248,39.8710828 4.45630573,39.7892994 C4.92636943,39.7077707 5.33528662,39.562293 5.68305732,39.3536306 C6.03082803,39.1452229 6.30675159,38.8629299 6.51133758,38.5072611 C6.71566879,38.1513376 6.81808917,37.7034395 6.81808917,37.1635669 L6.81808917,36.9796178 L6.81808917,36.9796178 Z" id="Shape"></path>
                <g id="Group">
                    <path d="M56.3880255,6.9633121 L37.9834395,6.9633121 L26.6219108,19.8975796 L5.89783439,19.8975796 L11.8718471,13.2180892 L9.09630573,13.2180892 L5.21681529,13.2180892 L3.04356688,13.2180892 C1.3877707,13.2180892 0.032866242,14.6073885 0.032866242,16.3052229 L0.032866242,16.3054777 L0.032866242,22.2672611 L0.032866242,22.8191083 C0.032866242,24.5171975 1.3877707,25.9064968 3.04356688,25.9064968 L3.88942675,25.9064968 L34.4585987,25.9064968 L36.7233121,25.9064968 C38.3791083,25.9064968 40.6410191,24.8746497 41.7498089,23.6135032 L46.9984713,17.6435669 L56.3880255,6.9633121 Z" id="Shape"></path>
                    <path d="M61.4122293,0 L27.8321019,0 C26.1763057,0 23.9113376,1.02904459 22.7987261,2.28687898 L8.0677707,18.9434395 L26.0292994,18.9434395 L37.4998726,6.04025478 L58.4935032,6.04025478 L52.6721019,12.6884076 L61.4124841,12.6884076 C63.0682803,12.6884076 64.4231847,11.2988535 64.4231847,9.60101911 L64.4231847,3.08738854 C64.4229299,1.38929936 63.0680255,0 61.4122293,0 Z" id="Shape"></path>
                </g>
            </g>
        </g>
    </g>
</svg>