<?xml version="1.0" encoding="UTF-8"?>
<svg width="120px" height="40px" viewBox="0 0 120 40" version="1.1" xmlns="http://www.w3.org/2000/svg" xmlns:xlink="http://www.w3.org/1999/xlink">
    <!-- Generator: Sketch 46.2 (44496) - http://www.bohemiancoding.com/sketch -->
    <title>belfius</title>
    <desc>Created with Sketch.</desc>
    <defs>
        <polygon id="path-1" points="0.212056338 0.00422535211 12.5585352 0.00422535211 12.5585352 25.412338 0.212056338 25.412338 0.212056338 0.00422535211"></polygon>
    </defs>
    <g id="Footer" stroke="none" stroke-width="1" fill="none" fill-rule="evenodd">
        <g id="belfius">
            <g id="Page-1">
                <path d="M0,21.0201972 L0,5.24752113 C0,2.66864789 2.09042254,0.576535211 4.67042254,0.576535211 L20.4411268,0.576535211 C23.0222535,0.576535211 25.1132394,2.66864789 25.1132394,5.24752113 L25.1132394,21.0201972 L25.1109859,25.694 L4.67042254,25.694 C2.09042254,25.694 0,23.5999155 0,21.0201972 Z M5.76529577,9.62783099 C5.76529577,10.4957183 6.38923944,11.4162817 7.55233803,11.4162817 L17.5590986,11.4162817 C18.7199437,11.4162817 19.3458592,10.4957183 19.3458592,9.62783099 C19.3458592,8.76078873 18.7199437,7.84332394 17.5590986,7.84332394 L7.55233803,7.84332394 C6.38923944,7.84332394 5.76529577,8.76078873 5.76529577,9.62783099 Z M5.76529577,16.6413521 C5.76529577,17.5072676 6.38923944,18.4267042 7.55233803,18.4267042 L17.5590986,18.4267042 C18.7199437,18.4267042 19.3458592,17.5072676 19.3458592,16.6413521 C19.3458592,15.7726197 18.7199437,14.8529014 17.5590986,14.8529014 L7.55233803,14.8529014 C6.38923944,14.8529014 5.76529577,15.7726197 5.76529577,16.6413521 Z" id="Combined-Shape" fill="#346275"></path>
                <path d="M35.7442535,10.9426197 L40.2481972,10.9426197 C42.1352394,10.9426197 43.6710141,9.39416901 43.6710141,7.48994366 L43.6710141,7.06402817 C43.4467887,5.37501408 41.997493,4.06740845 40.2481972,4.06740845 L35.7442535,4.06740845 L35.7442535,10.9426197 Z M35.7442535,22.2045915 L40.2481972,22.2045915 C42.4005915,22.2045915 44.1515775,20.4671268 44.1515775,18.3310704 C44.1515775,16.1792394 42.4005915,14.4282535 40.2481972,14.4282535 L35.7442535,14.4282535 L35.7442535,22.2045915 Z M40.2481972,25.6899437 L34.0017183,25.6899437 C33.0569296,25.6899437 32.2589014,24.8919155 32.2589014,23.9471268 L32.2589014,2.32487324 C32.2589014,1.38008451 33.0569296,0.582056338 34.0017183,0.582056338 L40.2481972,0.582056338 C44.0735493,0.582056338 47.186507,3.68121127 47.186507,7.48994366 C47.186507,9.44909859 46.3639718,11.3006479 44.9203099,12.6155775 C46.626507,14.0133239 47.6366479,16.1175493 47.6366479,18.301493 C47.6366479,22.3752958 44.3222817,25.6899437 40.2481972,25.6899437 L40.2481972,25.6899437 Z" id="Fill-7" fill="#346275"></path>
                <path d="M53.1468732,14.0959437 L59.5722254,14.0959437 L59.5722254,13.7367887 C59.5722254,11.9350986 58.1612394,10.5241127 56.3592676,10.5241127 C54.5581408,10.5241127 53.1468732,11.9350986 53.1468732,13.7367887 L53.1468732,14.0959437 Z M56.659831,25.9903099 C52.8668732,25.9903099 49.6618028,22.9229859 49.6618028,19.2922817 L49.6618028,13.7367887 C49.6618028,10.0432676 52.6665915,7.03876056 56.3592676,7.03876056 C60.0530704,7.03876056 63.0581408,10.0432676 63.0581408,13.7367887 L63.0581408,15.8387606 C63.0581408,16.7835493 62.259831,17.5815775 61.3150423,17.5815775 L53.1468732,17.5815775 L53.1468732,19.2922817 C53.1468732,20.9736901 54.8215211,22.5046761 56.659831,22.5046761 C57.8040563,22.5046761 58.6958873,22.160169 59.3863099,21.4511549 C59.7429296,20.9418592 60.2223662,20.6728451 60.7747606,20.6728451 C61.7178592,20.6728451 62.5772958,21.5032676 62.5772958,22.415662 C62.5772958,22.7689014 62.4677183,23.0897465 62.2333521,23.4246761 L62.2333521,23.4243944 C62.2344789,23.4243944 62.1001127,23.6534085 61.8156056,23.9376338 C60.6003944,25.240169 58.7192676,25.9903099 56.659831,25.9903099 L56.659831,25.9903099 Z" id="Fill-9" fill="#346275"></path>
                <path d="M67.487493,25.6898028 C66.6215775,25.6898028 65.7446761,25.0912113 65.7446761,23.9469859 L65.7446761,2.32473239 C65.7446761,1.18050704 66.6215775,0.582197183 67.487493,0.582197183 C68.3534085,0.582197183 69.2300282,1.18050704 69.2300282,2.32473239 L69.2300282,23.9469859 C69.2300282,25.0912113 68.3534085,25.6898028 67.487493,25.6898028" id="Fill-11" fill="#346275"></path>
                <g id="Group-15" transform="translate(70.985915, 0.277465)">
                    <mask id="mask-2" fill="white">
                        <use xlink:href="#path-1"></use>
                    </mask>
                    <g id="Clip-14"></g>
                    <path d="M5.01994366,25.412338 C4.15346479,25.412338 3.27712676,24.8137465 3.27712676,23.6695211 L3.27712676,10.5472676 L1.95430986,10.5472676 C0.810084507,10.5472676 0.212056338,9.6703662 0.212056338,8.8044507 C0.212056338,7.93853521 0.810084507,7.06135211 1.95430986,7.06135211 L3.27712676,7.06135211 L3.27712676,5.08022535 C3.27712676,2.18642254 5.60135211,0.00416901408 8.68360563,0.00416901408 C11.3602254,0.00416901408 12.5585352,1.27177465 12.5585352,2.52783099 C12.5585352,3.46980282 11.9126197,4.18050704 11.056,4.18050704 C10.6883944,4.18050704 10.3517746,4.07966197 10.0255775,3.87233803 C9.83402817,3.76078873 9.30191549,3.48980282 8.68360563,3.48980282 C7.26585915,3.48980282 6.76247887,4.34642254 6.76247887,5.08022535 L6.76247887,7.06135211 L10.4252958,7.06135211 C11.5698028,7.06135211 12.1683944,7.93853521 12.1683944,8.8044507 C12.1683944,9.6703662 11.5698028,10.5472676 10.4252958,10.5472676 L6.76247887,10.5472676 L6.76247887,23.6695211 C6.76247887,24.8137465 5.88585915,25.412338 5.01994366,25.412338" id="Fill-13" fill="#346275" mask="url(#mask-2)"></path>
                </g>
                <path d="M87.087493,5.31816901 C86.2221408,5.31816901 85.3449577,4.71957746 85.3449577,3.57535211 L85.3449577,2.32492958 C85.3449577,1.18070423 86.2221408,0.582112676 87.087493,0.582112676 C87.9534085,0.582112676 88.8303099,1.18070423 88.8303099,2.32492958 L88.8303099,3.57535211 C88.8303099,4.71957746 87.9534085,5.31816901 87.087493,5.31816901 M87.087493,25.6897183 C86.2221408,25.6897183 85.3449577,25.0911268 85.3449577,23.9471831 L85.3449577,9.08183099 C85.3449577,7.93760563 86.2221408,7.33901408 87.087493,7.33901408 C87.9534085,7.33901408 88.8303099,7.93760563 88.8303099,9.08183099 L88.8303099,23.9471831 C88.8303099,25.0911268 87.9534085,25.6897183 87.087493,25.6897183" id="Fill-16" fill="#346275"></path>
                <path d="M98.7050141,25.9901972 C95.012338,25.9901972 92.007831,22.9856901 92.007831,19.2924507 L92.007831,9.08174648 C92.007831,7.93780282 92.884169,7.33892958 93.7500845,7.33892958 C94.616,7.33892958 95.4926197,7.93780282 95.4926197,9.08174648 L95.4926197,19.2924507 C95.4926197,21.0935775 96.904169,22.5045634 98.7050141,22.5045634 C100.506423,22.5045634 101.917972,21.0935775 101.917972,19.2924507 L101.917972,9.08174648 C101.917972,7.93780282 102.794028,7.33892958 103.659944,7.33892958 C104.525859,7.33892958 105.402761,7.93780282 105.402761,9.08174648 L105.402761,19.2924507 C105.402761,22.9856901 102.39769,25.9901972 98.7050141,25.9901972" id="Fill-18" fill="#346275"></path>
                <path d="M113.321014,25.9901972 C111.499887,25.9901972 109.103268,25.1592113 108.044394,23.5704789 C107.819324,23.2490704 107.703831,22.8992113 107.703831,22.535831 C107.703831,21.6234366 108.562986,20.7932958 109.506085,20.7932958 C110.039324,20.7932958 110.54862,21.0696338 110.901859,21.552169 L110.957915,21.6352676 C111.471437,22.1882254 112.330592,22.5045634 113.321014,22.5045634 C115.252,22.5045634 116.262141,21.4479437 116.262141,20.4037183 C116.262141,18.9378028 114.720732,18.335831 112.93538,17.6392113 C110.657634,16.7504789 107.823549,15.6445634 107.823549,12.1749859 C107.823549,8.80287324 110.695099,7.03864789 113.530592,7.03864789 C115.587775,7.03864789 117.757634,8.17076056 118.808338,9.79132394 C118.992845,10.0682254 119.087493,10.3963944 119.087493,10.7637183 C119.087493,11.7082254 118.261577,12.5062535 117.284394,12.5062535 C116.702423,12.5062535 116.206648,12.215831 115.888056,11.6873803 C115.170592,10.8831549 114.442704,10.5242817 113.530592,10.5242817 C112.181577,10.5242817 111.308901,11.172169 111.308901,12.1749859 C111.308901,13.2918873 112.69538,13.8380845 114.300451,14.4701972 C116.727775,15.4259718 119.74862,16.6155493 119.74862,20.4037183 C119.74862,24.032169 116.436789,25.9901972 113.321014,25.9901972" id="Fill-20" fill="#346275"></path>
                <path d="M34.547493,34.8716901 L33.1393239,34.8716901 L33.1393239,37.3226761 L34.547493,37.3226761 C35.2249577,37.3226761 35.7776338,36.77 35.7776338,36.1015493 C35.7776338,35.4240845 35.2249577,34.8716901 34.547493,34.8716901 L34.547493,34.8716901 Z M35.6435493,32.8933803 C35.6435493,32.2866197 35.1536901,31.7973239 34.547493,31.7973239 L33.1393239,31.7973239 L33.1393239,33.9795775 L34.547493,33.9795775 C35.1536901,33.9795775 35.6350986,33.4905634 35.6350986,32.8835211 L35.6435493,32.8933803 Z M34.547493,38.2130986 L32.6939718,38.2130986 C32.4528451,38.2130986 32.2480563,38.0088732 32.2480563,37.7674648 L32.2480563,31.3511268 C32.2480563,31.1108451 32.4528451,30.905493 32.6939718,30.905493 L34.547493,30.905493 C35.6435493,30.905493 36.5350986,31.7973239 36.5350986,32.8835211 C36.5350986,33.4990141 36.2587606,34.0429577 35.8221408,34.4083099 C36.3300282,34.7908451 36.6686197,35.4066197 36.6686197,36.0928169 C36.6686197,37.2694366 35.7150986,38.2130986 34.547493,38.2130986 L34.547493,38.2130986 Z" id="Fill-22" fill="#346275"></path>
                <path d="M40.2764789,35.6914648 L39.3407042,35.9061127 C38.7522535,36.0297746 38.4674648,36.350338 38.4674648,36.6810423 C38.4674648,37.1083662 38.7880282,37.4117465 39.3669014,37.4117465 C39.9108451,37.4117465 40.2764789,37.0551268 40.2764789,36.5920282 L40.2764789,35.6914648 Z M39.3759155,38.3027324 C38.4674648,38.3027324 37.5761972,37.7587887 37.5761972,36.689493 C37.5761972,35.7001972 38.3961972,35.2097746 39.2516901,35.0323099 L40.2764789,34.8097746 L40.2764789,34.5334366 C40.2764789,34.0342817 40.018169,33.7134366 39.3939437,33.7134366 C38.7342254,33.7134366 38.6629577,34.2568169 38.2446479,34.2568169 C38.0035211,34.2568169 37.7984507,34.0689296 37.7984507,33.8111831 C37.7984507,33.6683662 37.8697183,33.5435775 37.9590141,33.4455493 C38.3156338,33.0354085 38.8502817,32.8216056 39.3939437,32.8216056 C40.4995775,32.8216056 41.1674648,33.5351268 41.1674648,34.5334366 L41.1674648,36.5920282 C41.1674648,37.6247042 40.3209859,38.3027324 39.3759155,38.3027324 L39.3759155,38.3027324 Z" id="Fill-24" fill="#346275"></path>
                <path d="M45.6391831,38.2131831 C45.4163662,38.2131831 45.1932676,38.0621972 45.1932676,37.7675493 L45.1932676,34.7376901 C45.1932676,34.1683944 44.7389014,33.7131831 44.1684789,33.7131831 C43.5980563,33.7131831 43.1442535,34.1683944 43.1442535,34.7376901 L43.1442535,37.7675493 C43.1442535,38.0621972 42.9211549,38.2131831 42.698338,38.2131831 C42.4752394,38.2131831 42.2524225,38.0621972 42.2524225,37.7675493 L42.2524225,34.7376901 C42.2524225,33.6774085 43.1081972,32.8216338 44.1684789,32.8216338 C45.2293239,32.8216338 46.0848169,33.6774085 46.0848169,34.7376901 L46.0848169,37.7675493 C46.0848169,38.0621972 45.8622817,38.2131831 45.6391831,38.2131831" id="Fill-26" fill="#346275"></path>
                <path d="M50.5567887,38.2222817 C50.432,38.2222817 50.3072113,38.1690423 50.2094648,38.0352394 L48.6672113,35.9850986 L48.1503099,36.5921408 L48.1503099,37.7676338 C48.1503099,38.0622817 47.9277746,38.2132676 47.7049577,38.2132676 C47.4821408,38.2132676 47.2590423,38.0622817 47.2590423,37.7676338 L47.2590423,31.3510141 C47.2590423,31.0566479 47.4821408,30.9053803 47.7049577,30.9053803 C47.9277746,30.9053803 48.1503099,31.0566479 48.1503099,31.3510141 L48.1503099,35.2281972 L49.9953803,33.0718592 C50.0936901,32.9552394 50.2094648,32.9022817 50.3249577,32.9022817 C50.5655211,32.9022817 50.7886197,33.1160845 50.7886197,33.3566479 C50.7886197,33.4549577 50.7531268,33.5524225 50.6728451,33.6411549 L49.2643944,35.290169 L50.9221408,37.5008732 C50.9936901,37.5904507 51.0204507,37.6881972 51.0204507,37.7676338 C51.0204507,38.017493 50.7886197,38.2222817 50.5567887,38.2222817" id="Fill-28" fill="#346275"></path>
                <path d="M56.1768169,31.7169859 C55.6956901,31.7169859 55.3570986,32.046 55.3570986,32.670507 C55.3570986,32.8933239 55.5266761,33.3127606 55.8382254,33.6775493 L55.8830141,33.7307887 C56.3286479,33.4268451 56.9078028,33.0448732 56.9078028,32.4476901 C56.9078028,32.046 56.5692113,31.7169859 56.1768169,31.7169859 L56.1768169,31.7169859 Z M55.7314648,34.8986761 C55.3038592,35.2367042 55.0187887,35.5936056 55.0187887,36.1186761 C55.0187887,36.8682535 55.5799155,37.402338 56.3911831,37.402338 C56.8100563,37.402338 57.1306197,37.1803662 57.3889296,36.8595211 L55.7314648,34.8986761 Z M58.7348451,38.222338 C58.6190704,38.222338 58.4945634,38.1688169 58.4052676,38.0620563 L57.9686479,37.5544507 C57.5852676,37.9817746 57.0593521,38.2938873 56.3911831,38.2938873 C55.1435775,38.2938873 54.1272394,37.4209296 54.1272394,36.1186761 C54.1272394,35.209662 54.6173803,34.6482535 55.1616056,34.229662 C54.8492113,33.8471268 54.465831,33.2589577 54.465831,32.7150141 C54.465831,31.7527606 55.0630141,30.8248732 56.1768169,30.8248732 C57.0416056,30.8248732 57.7990704,31.529662 57.7990704,32.4476901 C57.7990704,33.4099437 57.0954085,33.9533239 56.4356901,34.3995211 L57.8435775,36.0654366 C57.9590704,35.7806479 58.0218873,35.5220563 58.0218873,35.4958592 C58.0754085,35.2544507 58.2714648,35.1476901 58.4587887,35.1476901 C58.6548451,35.1476901 58.9128732,35.2902254 58.9128732,35.5662817 C58.9128732,35.6113521 58.9041408,35.6552958 58.8951268,35.6913521 C58.8866761,35.7186761 58.8506197,35.869662 58.7793521,36.0840282 C58.7080845,36.3161408 58.610338,36.5558592 58.4945634,36.7876901 L59.0827324,37.4826197 C59.154,37.5631831 59.1892113,37.669662 59.1892113,37.7674085 C59.1892113,38.0175493 58.9756901,38.222338 58.7348451,38.222338 L58.7348451,38.222338 Z" id="Fill-30" fill="#346275"></path>
                <path d="M67.002507,31.4936338 L64.8633521,37.9818028 C64.7827887,38.2319437 64.6053239,38.3654648 64.4351831,38.3654648 C64.266169,38.3654648 64.0968732,38.2319437 64.0165915,37.9818028 L61.8777183,31.4936338 C61.8596901,31.431662 61.8509577,31.3874366 61.8509577,31.3330704 C61.8509577,31.0750423 62.082507,30.9054648 62.314338,30.9054648 C62.4839155,30.9054648 62.6532113,30.9947606 62.7241972,31.2085634 L64.4351831,36.4136338 L66.1557465,31.2085634 C66.2272958,30.9947606 66.3960282,30.9054648 66.5656056,30.9054648 C66.7974366,30.9054648 67.0295493,31.0750423 67.0295493,31.3330704 C67.0295493,31.3874366 67.0199718,31.431662 67.002507,31.4936338" id="Fill-32" fill="#346275"></path>
                <path d="M70.6985915,34.7377465 C70.6985915,34.1684507 70.2442254,33.7132394 69.6735211,33.7132394 C69.1033803,33.7132394 68.6495775,34.1684507 68.6495775,34.7377465 L68.6495775,34.9160563 L70.6985915,34.9160563 L70.6985915,34.7377465 Z M71.144507,35.8078873 L68.6495775,35.8078873 L68.6495775,36.3864789 C68.6495775,36.9214085 69.1659155,37.411831 69.7630986,37.411831 C70.1016901,37.411831 70.3960563,37.3140845 70.6278873,37.0723944 C70.7261972,36.9301408 70.8507042,36.868169 70.9839437,36.868169 C71.2157746,36.868169 71.4476056,37.0723944 71.4476056,37.3140845 C71.4476056,37.4022535 71.4208451,37.4825352 71.3583099,37.571831 C71.3583099,37.571831 71.3230986,37.6346479 71.2428169,37.7140845 C70.8684507,38.115493 70.3064789,38.3025352 69.7630986,38.3025352 C68.7383099,38.3025352 67.7574648,37.4740845 67.7574648,36.3864789 L67.7574648,34.7377465 C67.7574648,33.6774648 68.6138028,32.8216901 69.6735211,32.8216901 C70.7343662,32.8216901 71.5898592,33.6774648 71.5898592,34.7377465 L71.5898592,35.3619718 C71.5898592,35.6025352 71.3850704,35.8078873 71.144507,35.8078873 L71.144507,35.8078873 Z" id="Fill-34" fill="#346275"></path>
                <path d="M75.2419437,34.0786197 C75.1346197,34.0786197 75.0191268,34.0343944 74.9213803,33.9358028 L74.9036338,33.9177746 C74.7430704,33.7839718 74.5295493,33.7132676 74.3244789,33.7132676 C73.8160282,33.7132676 73.4774366,34.0512958 73.4774366,34.8000282 L73.4774366,37.7676338 C73.4774366,38.0622817 73.2549014,38.2132676 73.0318028,38.2132676 C72.8089859,38.2132676 72.586169,38.0622817 72.586169,37.7676338 L72.586169,34.8000282 C72.586169,33.7580563 73.1565915,32.8217183 74.3244789,32.8217183 C74.734338,32.8217183 75.2605352,33.0000282 75.5633521,33.3127042 C75.6520845,33.4098873 75.6965915,33.5166479 75.6965915,33.6239718 C75.6965915,33.8648169 75.4737746,34.0786197 75.2419437,34.0786197" id="Fill-36" fill="#346275"></path>
                <path d="M79.5454085,38.2131831 L76.6851268,38.2131831 C76.3820282,38.2131831 76.2037183,38.0540282 76.2037183,37.8390986 C76.2037183,37.7410704 76.2389296,37.6345915 76.3011831,37.5269859 L78.6904789,33.8024789 L76.8893521,33.8024789 C76.5865352,33.8024789 76.4437183,33.5793803 76.4437183,33.3565634 C76.4437183,33.1337465 76.5865352,32.9109296 76.8893521,32.9109296 L79.5101972,32.9109296 C79.8037183,32.9109296 79.9823099,33.0717746 79.9823099,33.2847324 C79.9823099,33.3830423 79.9552676,33.4903662 79.8837183,33.5974085 L77.4955493,37.3227606 L79.5454085,37.3227606 C79.8397746,37.3227606 79.9910423,37.5455775 79.9910423,37.7675493 C79.9910423,37.9903662 79.8397746,38.2131831 79.5454085,38.2131831" id="Fill-38" fill="#346275"></path>
                <path d="M83.8395493,34.7377465 C83.8395493,34.1684507 83.3846197,33.7132394 82.8139155,33.7132394 C82.2437746,33.7132394 81.7899718,34.1684507 81.7899718,34.7377465 L81.7899718,34.9160563 L83.8395493,34.9160563 L83.8395493,34.7377465 Z M84.2854648,35.8078873 L81.7899718,35.8078873 L81.7899718,36.3864789 C81.7899718,36.9214085 82.3068732,37.411831 82.9037746,37.411831 C83.2420845,37.411831 83.5364507,37.3140845 83.7682817,37.0723944 C83.8665915,36.9301408 83.9910986,36.868169 84.1251831,36.868169 C84.356169,36.868169 84.588,37.0723944 84.588,37.3140845 C84.588,37.4022535 84.5615211,37.4825352 84.4987042,37.571831 C84.4987042,37.571831 84.463493,37.6346479 84.3832113,37.7140845 C84.0091268,38.115493 83.4474366,38.3025352 82.9037746,38.3025352 C81.8787042,38.3025352 80.8981408,37.4740845 80.8981408,36.3864789 L80.8981408,34.7377465 C80.8981408,33.6774648 81.7541972,32.8216901 82.8139155,32.8216901 C83.8756056,32.8216901 84.7302535,33.6774648 84.7302535,34.7377465 L84.7302535,35.3619718 C84.7302535,35.6025352 84.5254648,35.8078873 84.2854648,35.8078873 L84.2854648,35.8078873 Z" id="Fill-40" fill="#346275"></path>
                <path d="M89.1129859,38.2222817 C88.9879155,38.2222817 88.8631268,38.1690423 88.765662,38.0352394 L87.2236901,35.9850986 L86.7062254,36.5921408 L86.7062254,37.7676338 C86.7062254,38.0622817 86.4839718,38.2132676 86.2611549,38.2132676 C86.0380563,38.2132676 85.8155211,38.0622817 85.8155211,37.7676338 L85.8155211,31.3510141 C85.8155211,31.0566479 86.0380563,30.9053803 86.2611549,30.9053803 C86.4839718,30.9053803 86.7062254,31.0566479 86.7062254,31.3510141 L86.7062254,35.2281972 L88.5515775,33.0718592 C88.6493239,32.9552394 88.765662,32.9022817 88.882,32.9022817 C89.122,32.9022817 89.3439718,33.1160845 89.3439718,33.3566479 C89.3439718,33.4549577 89.3096056,33.5524225 89.2293239,33.6411549 L87.8205915,35.290169 L89.478338,37.5008732 C89.5496056,37.5904507 89.5766479,37.6881972 89.5766479,37.7676338 C89.5766479,38.017493 89.3439718,38.2222817 89.1129859,38.2222817" id="Fill-42" fill="#346275"></path>
                <path d="M93.3352958,34.7377465 C93.3352958,34.1684507 92.8812113,33.7132394 92.3102254,33.7132394 C91.7400845,33.7132394 91.286,34.1684507 91.286,34.7377465 L91.286,34.9160563 L93.3352958,34.9160563 L93.3352958,34.7377465 Z M93.7809296,35.8078873 L91.286,35.8078873 L91.286,36.3864789 C91.286,36.9214085 91.8026197,37.411831 92.3998028,37.411831 C92.7383944,37.411831 93.0327606,37.3140845 93.2634648,37.0723944 C93.3620563,36.9301408 93.4865634,36.868169 93.6206479,36.868169 C93.8524789,36.868169 94.0834648,37.0723944 94.0834648,37.3140845 C94.0834648,37.4022535 94.0569859,37.4825352 93.9947324,37.571831 C93.9947324,37.571831 93.9595211,37.6346479 93.8792394,37.7140845 C93.5045915,38.115493 92.9431831,38.3025352 92.3998028,38.3025352 C91.374169,38.3025352 90.394169,37.4740845 90.394169,36.3864789 L90.394169,34.7377465 C90.394169,33.6774648 91.249662,32.8216901 92.3102254,32.8216901 C93.3707887,32.8216901 94.226,33.6774648 94.226,34.7377465 L94.226,35.3619718 C94.226,35.6025352 94.0217746,35.8078873 93.7809296,35.8078873 L93.7809296,35.8078873 Z" id="Fill-44" fill="#346275"></path>
                <path d="M97.8792113,34.0786197 C97.772169,34.0786197 97.6563944,34.0343944 97.5586479,33.9358028 L97.540338,33.9177746 C97.3797746,33.7839718 97.1668169,33.7132676 96.9617465,33.7132676 C96.4532958,33.7132676 96.1147042,34.0512958 96.1147042,34.8000282 L96.1147042,37.7676338 C96.1147042,38.0622817 95.8918873,38.2132676 95.6682254,38.2132676 C95.4462535,38.2132676 95.2228732,38.0622817 95.2228732,37.7676338 L95.2228732,34.8000282 C95.2228732,33.7580563 95.7930141,32.8217183 96.9617465,32.8217183 C97.3716056,32.8217183 97.8969577,33.0000282 98.1997746,33.3127042 C98.2890704,33.4098873 98.3338592,33.5166479 98.3338592,33.6239718 C98.3338592,33.8648169 98.1110423,34.0786197 97.8792113,34.0786197" id="Fill-46" fill="#346275"></path>
                <path d="M99.5974085,38.2131831 C99.3748732,38.2131831 99.1520563,38.0621972 99.1520563,37.7675493 L99.1520563,33.3565634 C99.1520563,33.0619155 99.3748732,32.9109296 99.5974085,32.9109296 C99.820507,32.9109296 100.042761,33.0619155 100.042761,33.3565634 L100.042761,37.7675493 C100.042761,38.0621972 99.820507,38.2131831 99.5974085,38.2131831 M99.5974085,32.3312113 C99.3748732,32.3312113 99.1520563,32.1799437 99.1520563,31.8867042 L99.1520563,31.3512113 C99.1520563,31.0565634 99.3748732,30.9055775 99.5974085,30.9055775 C99.820507,30.9055775 100.042761,31.0565634 100.042761,31.3512113 L100.042761,31.8867042 C100.042761,32.1799437 99.820507,32.3312113 99.5974085,32.3312113" id="Fill-48" fill="#346275"></path>
                <path d="M104.605099,38.2131831 C104.382563,38.2131831 104.159465,38.0621972 104.159465,37.7675493 L104.159465,34.7376901 C104.159465,34.1683944 103.704817,33.7131831 103.134676,33.7131831 C102.563972,33.7131831 102.110451,34.1683944 102.110451,34.7376901 L102.110451,37.7675493 C102.110451,38.0621972 101.88707,38.2131831 101.664254,38.2131831 C101.441155,38.2131831 101.218338,38.0621972 101.218338,37.7675493 L101.218338,34.7376901 C101.218338,33.6774085 102.074113,32.8216338 103.134676,32.8216338 C104.195521,32.8216338 105.051014,33.6774085 105.051014,34.7376901 L105.051014,37.7675493 C105.051014,38.0621972 104.828197,38.2131831 104.605099,38.2131831" id="Fill-50" fill="#346275"></path>
                <path d="M109.076676,34.7377465 C109.076676,34.1684507 108.621746,33.7132394 108.051606,33.7132394 C107.481465,33.7132394 107.02738,34.1684507 107.02738,34.7377465 L107.02738,36.2078873 C107.02738,36.7785915 107.481465,37.2329577 108.051606,37.2329577 C108.621746,37.2329577 109.076676,36.7785915 109.076676,36.2078873 L109.076676,34.7377465 Z M108.051606,39.9957746 C107.508507,39.9957746 106.777239,39.7552113 106.456958,39.2650704 C106.394704,39.1757746 106.367099,39.096338 106.367099,39.0073239 C106.367099,38.7659155 106.599775,38.5611268 106.830479,38.5611268 C106.964845,38.5611268 107.089352,38.623662 107.187662,38.7659155 C107.187662,38.7659155 107.196113,38.775493 107.214423,38.7929577 C107.427662,39.0160563 107.748789,39.1050704 108.051606,39.1050704 C108.621746,39.1050704 109.076676,38.6504225 109.076676,38.0794366 L109.076676,37.8307042 C108.782873,38.0177465 108.426254,38.1242254 108.051606,38.1242254 C106.991042,38.1242254 106.135268,37.2692958 106.135268,36.2078873 L106.135268,34.7377465 C106.135268,33.6774648 106.991042,32.8216901 108.051606,32.8216901 C109.112451,32.8216901 109.96738,33.6774648 109.96738,34.7377465 L109.96738,36.2078873 L109.96738,38.0794366 C109.96738,39.1411268 109.112451,39.9957746 108.051606,39.9957746 L108.051606,39.9957746 Z" id="Fill-52" fill="#346275"></path>
                <path d="M113.994141,34.7377465 C113.994141,34.1684507 113.539775,33.7132394 112.96907,33.7132394 C112.399211,33.7132394 111.945127,34.1684507 111.945127,34.7377465 L111.945127,34.9160563 L113.994141,34.9160563 L113.994141,34.7377465 Z M114.439775,35.8078873 L111.945127,35.8078873 L111.945127,36.3864789 C111.945127,36.9214085 112.460901,37.411831 113.058085,37.411831 C113.397239,37.411831 113.690761,37.3140845 113.922592,37.0723944 C114.021746,36.9301408 114.145972,36.868169 114.279775,36.868169 C114.511606,36.868169 114.74231,37.0723944 114.74231,37.3140845 C114.74231,37.4022535 114.716394,37.4825352 114.653859,37.571831 C114.653859,37.571831 114.618085,37.6346479 114.537803,37.7140845 C114.164,38.115493 113.602028,38.3025352 113.058085,38.3025352 C112.033296,38.3025352 111.053014,37.4740845 111.053014,36.3864789 L111.053014,34.7377465 C111.053014,33.6774648 111.908789,32.8216901 112.96907,32.8216901 C114.029915,32.8216901 114.884845,33.6774648 114.884845,34.7377465 L114.884845,35.3619718 C114.884845,35.6025352 114.680056,35.8078873 114.439775,35.8078873 L114.439775,35.8078873 Z" id="Fill-54" fill="#346275"></path>
                <path d="M119.267859,38.2131831 C119.045324,38.2131831 118.822507,38.0621972 118.822507,37.7675493 L118.822507,34.7376901 C118.822507,34.1683944 118.367577,33.7131831 117.797437,33.7131831 C117.227296,33.7131831 116.773211,34.1683944 116.773211,34.7376901 L116.773211,37.7675493 C116.773211,38.0621972 116.550394,38.2131831 116.327577,38.2131831 C116.104197,38.2131831 115.881662,38.0621972 115.881662,37.7675493 L115.881662,34.7376901 C115.881662,33.6774085 116.737718,32.8216338 117.797437,32.8216338 C118.858845,32.8216338 119.713775,33.6774085 119.713775,34.7376901 L119.713775,37.7675493 C119.713775,38.0621972 119.491521,38.2131831 119.267859,38.2131831" id="Fill-56" fill="#346275"></path>
            </g>
        </g>
    </g>
</svg>