<?xml version="1.0" encoding="UTF-8"?>
<svg width="70px" height="40px" viewBox="0 0 70 40" version="1.1" xmlns="http://www.w3.org/2000/svg" xmlns:xlink="http://www.w3.org/1999/xlink">
    <!-- Generator: Sketch 46.2 (44496) - http://www.bohemiancoding.com/sketch -->
    <title>hipay</title>
    <desc>Created with Sketch.</desc>
    <defs></defs>
    <g id="Footer" stroke="none" stroke-width="1" fill="none" fill-rule="evenodd">
        <g id="hipay" fill="#346275">
            <g id="logo">
                <path d="M18.0000415,0.186643599 C19.1492457,0.594256055 19.5731903,1.39038062 19.2295225,2.55979239 C18.1983806,6.06955017 17.2018408,9.58871972 16.2821176,13.129481 C16.2432249,13.2791003 16.2173426,13.4320415 16.168346,13.663737 C17.1228097,13.373218 17.9377578,12.9661592 18.7632249,12.5906574 C20.2515294,11.9137024 21.7026021,11.1624221 23.1355433,10.3748789 C24.0282768,9.88422145 24.7629481,9.92491349 25.3769273,10.4694118 C25.9738824,10.9986851 26.0966505,11.7433218 25.7345744,12.6886505 C24.6401799,15.5455363 23.487654,18.383045 22.8055779,21.3783391 C22.5981038,22.2898962 22.3593495,23.1687889 22.937481,24.0950173 C23.3182422,24.7048443 22.9845398,25.5597924 22.4203875,26.0129412 C21.854436,26.467474 21.0509758,26.5238062 20.4159585,26.1336332 C19.5323599,25.5906574 19.1748512,24.7424913 19.0940208,23.7543945 C18.95409,22.0429758 19.3961661,20.4168166 19.8670311,18.8011765 C20.1860623,17.7062284 20.5532595,16.6253979 20.9297301,15.4413149 C19.0375502,16.3130104 17.2248166,17.0904498 15.3607336,17.7387543 C15.0238478,17.8559862 15.0048858,18.1206228 14.9450934,18.3856747 C14.4436401,20.6076817 13.9387266,22.8288581 13.4429481,25.0521107 C13.1748512,26.2546021 12.344263,26.8713495 11.2789343,26.6397924 C10.2994187,26.426782 9.79450519,25.4750865 10.0443322,24.3034602 C10.4129135,22.5741869 10.7848166,20.8454671 11.171391,19.0413149 C10.4047474,19.1946713 9.67478201,19.3567474 8.93886505,19.484083 C8.10011073,19.6289965 7.25886505,19.7686505 6.4130519,19.8588927 C6.02357093,19.9004152 5.85844983,20.0277509 5.79575087,20.4263668 C5.58813841,21.7444291 5.33388235,23.0552941 5.10578547,24.3703114 C4.97319031,25.1348789 4.60419377,25.7229758 3.83256747,25.9352941 C3.13914187,26.1261592 2.50730796,25.9631142 2.01582007,25.3974394 C1.65665052,24.9841522 1.55976471,24.4958478 1.64280969,23.9741869 C1.83104498,22.7924567 2.02011073,21.6103114 2.24405536,20.4348097 C2.30703114,20.1044291 2.26537024,19.9743253 1.91312111,19.9595156 C0.995612457,19.9210381 0.368899654,19.4486505 4.15224914e-05,18.6180623 L4.15224914e-05,17.6492042 C0.345231834,16.6107266 1.01706574,16.1582699 2.06703114,16.2570934 C2.93083737,16.3384775 2.94592388,16.3420761 3.14232526,15.5141176 C4.1113218,11.4288581 5.36530104,7.42885813 6.72197924,3.45903114 C6.85623529,3.06622837 6.98481661,2.67079585 7.16737716,2.29806228 C7.61360554,1.38733564 8.63229066,0.958961938 9.54426298,1.28795848 C10.5235017,1.64117647 11.0421176,2.59619377 10.7406644,3.62083045 C10.2790727,5.18968858 9.66896886,6.70982699 9.19547405,8.27743945 C8.49595848,10.5934256 7.78343253,12.9049827 7.19533564,15.252526 C6.99325952,16.0595848 7.04211765,16.1066436 7.85319031,15.9541176 C8.98578547,15.7412457 10.1089689,15.487128 11.227308,15.2078201 C11.7481384,15.0778547 12.0477924,14.8134948 12.1868927,14.2652595 C13.1680692,10.4018685 14.2284152,6.55937716 15.337481,2.73072664 C15.5041246,2.15536332 15.6697993,1.57820069 15.9301453,1.03619377 C16.1855087,0.504429066 16.5568581,0.125467128 17.2023945,0.142768166 C17.4682768,0.161730104 17.7383114,0.098615917 18.0000415,0.186643599" id="Fill-1"></path>
                <path d="M23.1207474,5.88456747 C23.1049689,4.863391 23.9601938,3.98477509 24.994519,3.95958478 C26.0669066,3.93356401 27.0306436,4.86103806 27.0723045,5.95958478 C27.1117509,6.99653979 26.1990865,7.93757785 25.1637924,7.92747405 C24.0855917,7.91709343 23.1374948,6.96899654 23.1207474,5.88456747" id="Fill-7"></path>
                <path d="M45.4044152,20.8163045 C45.3912664,20.881218 45.3666298,20.9562353 45.3213702,20.9999723 C44.3835156,21.9141592 43.3981869,22.7613564 42.1393633,23.2691765 C42.1140346,21.4050934 44.7826851,17.3865467 46.6972872,16.495474 C46.151128,17.9933287 45.6942422,19.3810104 45.4044152,20.8163045 M69.016872,13.4337439 C68.3868374,12.2538131 66.8287751,12.134782 66.0359723,13.2135363 C65.8864913,13.4171349 65.7635848,13.6402491 65.6287751,13.854782 C63.8105052,16.7465467 61.8967336,19.5646782 59.3655225,21.9004567 C58.7883599,22.4331903 58.1663529,22.9072388 57.4179792,23.1862699 C57.0878754,23.3093149 56.8726505,23.2644706 56.8979792,22.8474464 C56.9568028,21.880526 57.0415087,20.9230173 57.5275986,20.0482768 C58.3817163,18.510699 59.0149343,16.8852318 59.3811626,15.1627405 C59.6233772,14.0240554 59.2080138,13.1904221 58.2737578,12.874436 C57.384346,12.5736747 56.5453149,12.9945744 56.0516125,14.011045 C55.3371488,15.4817716 54.7166644,16.9911142 54.2182561,18.5495917 C54.1204014,18.855474 54.0143806,19.1537439 53.8242076,19.425301 C52.5710588,21.2136747 50.9703668,22.5404567 48.8648997,23.2089689 C48.5191557,23.1715986 48.6650381,22.9447474 48.6931349,22.7630173 C48.8516125,20.3739516 49.7551419,18.2059239 50.6925813,16.0492457 C51.1284291,15.0464775 50.9896055,14.3560969 50.1790865,13.6396955 C49.7224775,13.2360969 49.1959723,12.9565121 48.607737,12.8028789 C46.8059377,12.3321522 45.2834464,12.9774118 43.9299516,14.0791419 C41.7222007,15.8760969 40.1224775,18.1302145 39.114173,20.7972042 C38.760955,21.7313218 38.524,22.6820484 38.6080138,23.697827 C38.7627543,25.571045 40.1419931,26.8401107 42.0102284,26.7909758 C43.1332734,26.7613564 44.1019931,26.2855087 45.0257301,25.7022561 C45.2696055,25.5482076 45.4185329,25.4759585 45.6338962,25.780872 C46.3561107,26.8024637 47.3977716,27.0504913 48.5709204,26.8579654 C50.2583945,26.5811488 51.7898824,25.9040554 53.1860069,24.9327059 C53.5508512,24.6788651 53.7263529,24.5742284 53.9785329,25.0722215 C54.4301592,25.9639862 55.2102284,26.4661315 56.1916817,26.6808028 C57.4182561,26.9491765 58.5130657,26.5875156 59.5765952,26.0366505 C60.2722353,25.6762353 60.8694671,25.1668927 61.5216471,24.6932595 C61.5933426,24.9812872 61.4464913,25.177827 61.3796401,25.3871003 C60.7918201,27.228346 60.1782561,29.061564 59.6085675,30.908346 C58.9498824,33.0431557 58.39791,35.2056471 58.0423391,37.4149204 C57.8516125,38.5998339 58.194173,39.2668235 59.2211626,39.6724983 C59.5219239,39.7781038 59.8329273,39.6981038 60.1385329,39.7231557 C61.0069066,39.6142284 61.4521661,39.2045398 61.6154879,38.2626713 C62.5382561,32.9394879 64.4060761,27.898519 66.1948651,22.8327751 C67.1532042,20.1192803 68.3339654,17.488692 69.2041384,14.7425329 L69.2041384,13.7736747 C69.0319585,13.7217716 69.0774948,13.5475156 69.016872,13.4337439" id="Fill-11"></path>
                <path d="M42.0646367,8.96286505 C41.6560554,9.55843599 41.1208304,10.0349758 40.5432526,10.4598893 C38.2372318,12.1567751 35.6163322,13.2085398 32.8329412,14.2345606 C33.497301,11.3376747 34.1295502,8.58334948 34.7597232,5.828609 C34.8099654,5.60881661 34.8923183,5.46639446 35.1587543,5.44258824 C37.0084429,5.27746713 38.8427682,5.29504498 40.6279585,5.88424913 C40.9518339,5.99110035 41.2703114,6.14722491 41.5547405,6.33546021 C42.5242907,6.9769827 42.7202768,8.00729412 42.0646367,8.96286505 M44.6175779,4.42099654 C43.5921107,3.2420346 42.2423529,2.61781315 40.7519723,2.28521799 C37.0375087,1.45642907 33.3706574,1.96798616 29.7241522,2.75082353 C28.9249827,2.92244983 28.4484429,3.64660208 28.4574394,4.44383391 C28.466436,5.23622145 28.9980623,5.91885121 29.760692,6.11912803 C30.1492042,6.22099654 30.5314879,6.13255363 31.0179931,6.04895502 C30.3885121,8.78238062 29.7269204,11.4158754 29.1966782,14.0755294 C28.987128,15.1261869 28.6121799,15.7373979 27.4823529,15.8904775 C26.7323183,15.9922076 26.2802768,16.709301 26.2496886,17.4508927 C26.217301,18.234699 26.6310035,18.9432111 27.3943253,19.1484706 C27.9204152,19.2897855 27.8903806,19.5349066 27.7887889,19.9311696 C27.4117647,21.4025882 27.0556401,22.8794048 26.6831834,24.3520692 C26.396263,25.4863253 26.8632526,26.5109619 27.7976471,26.7685398 C28.9060208,27.0740069 29.8579931,26.4794048 30.167474,25.2518616 C30.6907958,23.1764291 31.2207612,21.1021038 31.6856747,19.0132457 C31.8191003,18.4139377 32.0955017,18.147917 32.6584083,17.9643875 C35.8835986,16.912346 39.0293426,15.6735917 41.8791696,13.7902699 C43.159308,12.9443183 44.3134948,11.9606505 45.1277509,10.6351142 C46.3890657,8.5819654 46.1998616,6.23982007 44.6175779,4.42099654" id="Fill-13"></path>
            </g>
        </g>
    </g>
</svg>