<?xml version="1.0" encoding="UTF-8" standalone="no"?>
<svg width="190px" height="33px" viewBox="0 0 190 33" version="1.1" xmlns="http://www.w3.org/2000/svg" xmlns:xlink="http://www.w3.org/1999/xlink">
    <!-- Generator: Sketch 39.1 (31720) - http://www.bohemiancoding.com/sketch -->
    <title>neteller</title>
    <desc>Created with Sketch.</desc>
    <defs></defs>
    <g id="Payments" stroke="none" stroke-width="1" fill="none" fill-rule="evenodd">
        <g id="neteller" transform="translate(0.000000, -4.000000)" fill="#346275">
            <path d="M177.621598,18.4132081 C176.519411,19.1762603 174.993307,19.5153946 172.788934,19.5153946 L171.856314,19.5153946 L170.669344,19.5153946 L172.280232,10.6979026 L173.128068,10.6979026 L173.89112,10.6979026 C175.671575,10.6979026 176.943329,10.9522533 177.875948,11.5457384 C178.554217,11.9696562 179.402053,12.9022756 179.402053,14.5979471 C179.402053,16.7175366 178.469433,17.8197231 177.621598,18.4132081 L177.621598,18.4132081 L177.621598,18.4132081 L177.621598,18.4132081 Z M50.7853637,29.4350731 L34.2525658,29.4350731 L35.3547523,23.6697899 L45.698349,23.6697899 L46.8853191,17.1414544 L36.626506,17.1414544 L37.643909,11.4609548 L54.0071397,11.4609548 L50.7853637,29.4350731 L50.7853637,29.4350731 L50.7853637,29.4350731 L50.7853637,29.4350731 Z M186.523873,6.5435073 C184.065149,4.84783577 180.419456,4.08478358 175.671575,4.08478358 L163.123606,4.08478358 L158.460509,29.4350731 L142.012494,29.4350731 L143.029897,23.6697899 L152.949576,23.6697899 L154.136546,17.226238 L144.216867,17.226238 L145.319054,11.4609548 L155.577867,11.4609548 L156.934404,4 L136.162427,4 L131.753681,28.0785359 L124.123159,28.0785359 L128.616689,4 L117.594824,4 L113.186078,28.0785359 L105.725123,28.0785359 L110.218652,4 L99.3663543,4 L94.7032575,29.4350731 L78.085676,29.4350731 L79.103079,23.6697899 L89.1075413,23.6697899 L90.2945114,17.226238 L80.3748327,17.226238 L81.3922356,11.4609548 L91.7358322,11.4609548 L93.0923695,4 L28.4024989,4 L24.756805,24.0937078 L17.3806336,4.08478358 L6.10441767,4.08478358 L0,36.8960279 L10.7675145,36.8960279 L14.4132084,16.2088351 L21.535029,36.8960279 L60.1115573,36.8960279 L64.7746542,11.5457384 L70.7942883,11.5457384 L66.1311914,36.8960279 L167.532352,36.8960279 L170.499777,20.8719318 L175.247657,36.8960279 L186.015172,36.8960279 L181.097724,23.839357 L182.199911,23.5850063 C184.658635,23.0763048 186.608657,21.8893348 187.965194,20.1936632 C189.321731,18.4979917 190,16.2088351 190,13.5805442 C190,10.4435519 188.897813,8.1543953 186.523873,6.5435073 L186.523873,6.5435073 L186.523873,6.5435073 L186.523873,6.5435073 Z"></path>
        </g>
    </g>
</svg>