<?xml version="1.0" encoding="UTF-8"?>
<svg width="46px" height="40px" viewBox="0 0 46 40" version="1.1" xmlns="http://www.w3.org/2000/svg" xmlns:xlink="http://www.w3.org/1999/xlink">
    <!-- Generator: Sketch 46.2 (44496) - http://www.bohemiancoding.com/sketch -->
    <title>ideal</title>
    <desc>Created with Sketch.</desc>
    <defs></defs>
    <g id="Footer" stroke="none" stroke-width="1" fill="none" fill-rule="evenodd">
        <g id="ideal" fill="#346275">
            <g id="logo">
                <path d="M25.8264167,2.72730303 C30.9283106,2.72730303 35.1803561,4.10957576 38.1229318,6.72472727 C41.449447,9.68093939 43.1360379,14.159803 43.1360379,20.037 C43.1360379,31.6845758 37.4739924,37.346697 25.8264167,37.346697 L2.65149242,37.346697 L2.65149242,2.72730303 L25.8264167,2.72730303 Z M26.3245227,0.0757878788 L-2.27272727e-05,0.0757878788 L-2.27272727e-05,39.9982121 L26.3245227,39.9982121 L26.3245227,39.9906364 C32.0748258,39.912303 36.630053,38.4838182 39.8627045,35.7335152 C43.7942197,32.3886667 45.787553,27.1075303 45.787553,20.037 C45.787553,16.6571515 45.2632348,13.6254848 44.2292197,11.0263182 C43.2399773,8.53987879 41.7780833,6.42578788 39.8842955,4.74275758 C36.5488409,1.77843939 31.8667955,0.175636364 26.3245227,0.0845757576 L26.3245227,0.0757878788 Z" id="Fill-4"></path>
                <path d="M5.08954545,34.7303788 L5.08954545,22.547197 L12.4267424,22.547197 L12.4267424,34.7303788 L5.08954545,34.7303788 Z M12.980697,16.4560303 C12.980697,18.7495909 11.1210758,20.6101212 8.82743939,20.6101212 C6.53387879,20.6101212 4.67418182,18.7495909 4.67418182,16.4560303 C4.67418182,14.1623939 6.53387879,12.302697 8.82743939,12.302697 C11.1210758,12.302697 12.980697,14.1623939 12.980697,16.4560303 Z" id="Combined-Shape"></path>
                <path d="M15.7954621,20.3138636 L16.8222121,20.3138636 C17.3385758,20.3138636 17.7510758,20.265 18.0597121,20.1673485 C18.4722121,20.0350758 18.7997121,19.8507576 19.0422121,19.6144697 C19.3633485,19.3026515 19.6105455,18.894697 19.7837273,18.3906818 C19.9253939,17.9779545 19.996303,17.4865909 19.996303,16.9164394 C19.996303,16.2675 19.9206212,15.7217424 19.7694848,15.2791667 C19.6183485,14.8366667 19.3979697,14.4625 19.1082727,14.1569697 C18.8185758,13.8514394 18.4706212,13.6387121 18.0644848,13.5190152 C17.7621364,13.4308333 17.3228182,13.3867424 16.7466061,13.3867424 L15.7954621,13.3867424 L15.7954621,5.95526515 L25.1022045,5.95526515 L24.7265985,5.95526515 C32.4881136,5.95526515 40.7497045,9.01837121 40.7497045,20.3874621 C40.7497045,32.406553 32.4881136,34.7439773 24.7265985,34.7439773 L25.1022045,34.7439773 L15.7954621,34.7439773 L15.7954621,20.3138636 Z M15.5881212,14.5609848 L16.2178939,14.5609848 C16.7891818,14.5609848 17.1726667,14.5830303 17.3684242,14.6269697 C17.6303939,14.6836364 17.8466061,14.7921212 18.0171364,14.9524242 C18.1875909,15.1127273 18.3201667,15.3359091 18.4148636,15.6219697 C18.5095606,15.9080303 18.5569091,16.3182576 18.5569091,16.8526515 C18.5569091,17.3871212 18.5095606,17.8090909 18.4148636,18.1187121 C18.3201667,18.4284091 18.1977424,18.6507576 18.0478939,18.7859848 C17.8978939,18.9211364 17.7093333,19.0169697 17.4820606,19.0735606 C17.3084242,19.1175758 17.0259242,19.1396212 16.6345606,19.1396212 L15.5881212,19.1396212 L15.5881212,14.5609848 Z M21.5766667,20.3138258 L26.8371212,20.3138258 L26.8371212,19.1395833 L22.9734091,19.1395833 L22.9734091,17.2692803 L26.4440909,17.2692803 L26.4440909,16.0950379 L22.9734091,16.0950379 L22.9734091,14.560947 L26.7045455,14.560947 L26.7045455,13.3867045 L21.5766667,13.3867045 L21.5766667,20.3138258 Z M34.6591818,20.3138258 L31.8890303,13.3867045 L30.4002424,13.3867045 L27.7084242,20.3138258 L29.1923636,20.3138258 L29.765697,18.7418561 L32.5331212,18.7418561 L33.1375152,20.3138258 L34.6591818,20.3138258 Z M32.0842576,17.5676136 L30.1937273,17.5676136 L31.1294091,15.0013258 L32.0842576,17.5676136 Z M35.8276742,20.3138258 L40.7045682,20.3138258 L40.7045682,19.1395833 L37.2244167,19.1395833 L37.2244167,13.4435227 L35.8276742,13.4435227 L35.8276742,20.3138258 Z" id="Fill-7"></path>
            </g>
        </g>
    </g>
</svg>