<?xml version="1.0" encoding="UTF-8" standalone="no"?>
<svg width="118px" height="40px" viewBox="0 0 118 40" version="1.1" xmlns="http://www.w3.org/2000/svg" xmlns:xlink="http://www.w3.org/1999/xlink">
    <!-- Generator: Sketch 39.1 (31720) - http://www.bohemiancoding.com/sketch -->
    <title>skrill</title>
    <desc>Created with Sketch.</desc>
    <defs></defs>
    <g id="Payments" stroke="none" stroke-width="1" fill="none" fill-rule="evenodd">
        <g id="skrill" transform="translate(-36.000000, 0.000000)" fill="#346275">
            <path d="M129.178295,3.92764858 L138.945736,2.17054264 L138.945736,39.5865633 L129.178295,39.5865633 L129.178295,3.92764858 L129.178295,3.92764858 L129.178295,3.92764858 L129.178295,3.92764858 Z M143.44186,3.92764858 L143.44186,39.6382429 L153.209302,39.6382429 L153.209302,2.17054264 L143.44186,3.92764858 L143.44186,3.92764858 L143.44186,3.92764858 L143.44186,3.92764858 Z M115.276486,39.6382429 L125.043928,39.6382429 L125.043928,12.248062 L115.276486,12.248062 L115.276486,39.6382429 L115.276486,39.6382429 L115.276486,39.6382429 L115.276486,39.6382429 Z M50.8320413,16.124031 C49.5917313,16.0206718 46.749354,15.8656331 46.749354,13.2816537 C46.749354,10.1808786 50.8837209,10.1808786 52.3824289,10.1808786 C55.0697674,10.1808786 58.5839793,10.9560724 61.1162791,11.7312661 C61.1162791,11.7312661 62.5116279,12.248062 63.7002584,12.7131783 L63.8036176,12.7648579 L63.8036176,12.6614987 L63.8036176,4.2377261 L63.6485788,4.18604651 C60.7028424,3.15245478 57.2403101,2.17054264 50.8837209,2.17054264 C39.875969,2.17054264 36,8.5788114 36,14.0568475 C36,17.2093023 37.3436692,24.6511628 49.9534884,25.5297158 C51.0387597,25.5813953 53.8294574,25.7364341 53.8294574,28.4237726 C53.8294574,30.5943152 51.503876,31.8863049 47.627907,31.8863049 C43.3385013,31.8863049 39.2041344,30.8010336 36.6718346,29.7674419 L36.6718346,38.501292 C40.4444444,39.4832041 44.6821705,40 49.6950904,40 C60.4444444,40 65.250646,33.9534884 65.250646,27.9069767 C65.250646,21.1369509 59.875969,16.6925065 50.8320413,16.124031 L50.8320413,16.124031 L50.8320413,16.124031 L50.8320413,16.124031 Z M109.79845,11.8346253 C100.806202,12.1447028 96.2067183,16.1757106 96.2067183,24.1860465 L96.2067183,39.5865633 L106.02584,39.5865633 L106.02584,27.0284238 C106.02584,22.2222222 106.645995,20.1550388 112.382429,19.9483204 L112.382429,11.9896641 C111.400517,11.7829457 109.79845,11.8346253 109.79845,11.8346253 L109.79845,11.8346253 L109.79845,11.8346253 L109.79845,11.8346253 Z M83.3385013,12.1963824 C83.1317829,12.7648579 81.5813953,17.1576227 77.7571059,21.7054264 L77.7571059,2.17054264 L67.6795866,4.18604651 L67.6795866,39.6382429 L77.7571059,39.6382429 L77.7571059,28.6821705 C80.6511628,33.0749354 82.0981912,39.6382429 82.0981912,39.6382429 L94.1395349,39.6382429 C92.9509044,34.6770026 87.7312661,25.5297158 87.7312661,25.5297158 C92.4341085,19.5865633 94.4496124,13.2816537 94.8113695,12.1963824 L83.3385013,12.1963824 L83.3385013,12.1963824 L83.3385013,12.1963824 L83.3385013,12.1963824 Z M120.186047,9.6124031 C122.821705,9.6124031 124.992248,7.4418605 124.992248,4.80620155 C124.992248,2.17054264 122.821705,0 120.186047,0 C117.550388,0 115.379845,2.17054264 115.379845,4.80620155 C115.379845,7.4418605 117.498708,9.6124031 120.186047,9.6124031 L120.186047,9.6124031 L120.186047,9.6124031 L120.186047,9.6124031 Z"></path>
        </g>
    </g>
</svg>