<?xml version="1.0" encoding="UTF-8"?>
<svg width="217px" height="40px" viewBox="0 0 217 40" version="1.1" xmlns="http://www.w3.org/2000/svg" xmlns:xlink="http://www.w3.org/1999/xlink">
    <!-- Generator: Sketch 46.2 (44496) - http://www.bohemiancoding.com/sketch -->
    <title>sofort</title>
    <desc>Created with Sketch.</desc>
    <defs></defs>
    <g id="Footer" stroke="none" stroke-width="1" fill="none" fill-rule="evenodd">
        <g id="sofort" fill="#346275">
            <g id="logo">
                <path d="M59.7021928,1.09500255 L37.945436,1.09500255 C34.5145334,1.09500255 31.1810301,1.09500255 28.1973483,2.60953595 C25.2111168,4.12610913 22.5752167,7.15976543 20.5446201,13.2219786 C20.1081081,14.5248853 19.8745538,15.6503315 19.8424273,16.6227945 C19.8123406,17.6039266 19.9826619,18.4356451 20.3523712,19.1572157 C20.8103009,20.036359 21.5492096,20.8680775 22.4762876,21.5661907 C23.4008159,22.2663437 24.5114737,22.8344212 25.7042325,23.1995411 C25.7491076,23.2102499 26.3778684,23.3917899 27.1387047,23.6074962 C27.8969913,23.8257522 28.7848037,24.0873534 29.3442121,24.2561448 C29.672616,24.3576237 30.0336563,24.4871494 30.3620602,24.6839878 C30.690464,24.8808261 30.9841917,25.1393677 31.1703213,25.500408 C31.291178,25.7426313 31.3559408,26.0042325 31.3625701,26.2847017 C31.3712392,26.5677206 31.3238144,26.872667 31.2111168,27.1944416 C30.9347272,28.0174911 30.5109638,28.5488526 29.7072922,28.873177 C28.9056604,29.1969913 27.7220806,29.3010199 25.9286079,29.3137685 L3.54105048,29.3137685 L0,39.0383988 L23.9648139,39.0383988 C26.2202958,39.0383988 30.3426823,39.0383988 34.3074962,37.3550739 C38.2697603,35.6722591 42.0678225,32.3061193 43.6777155,25.5763896 C44.2825089,23.0460479 44.0963794,20.9828149 43.1050484,19.3647629 C42.109128,17.7462009 40.3115757,16.5733299 37.6930138,15.8211627 C37.6930138,15.8211627 37.1070882,15.6503315 36.4156043,15.4540031 C35.7312596,15.2551249 34.9377868,15.0281999 34.5318715,14.9119327 C33.8623151,14.7217236 33.345742,14.3326364 33.0413055,13.8400306 C32.7389087,13.3474248 32.6481387,12.7467109 32.8210097,12.1352881 C33,11.500408 33.4344722,10.9925038 34.063233,10.6426823 C34.6940337,10.2949006 35.5216726,10.1026517 36.4875064,10.1026517 L50.4166242,10.1026517 C50.5155533,9.96190719 50.6063233,9.80841407 50.7037226,9.66359001 C53.2463029,6.06644569 56.327384,3.15211627 59.7021928,1.09500255" id="Fill-1"></path>
                <path d="M59.7141764,1.05267721 L37.9574197,1.05267721 C34.5265171,1.05267721 31.1950535,1.05267721 28.209332,2.56721061 C25.2231005,4.08378378 22.5897501,7.11540031 20.5586435,13.1796532 C20.1200918,14.4825599 19.8865375,15.6059663 19.8564508,16.5804691 C19.8263641,17.5590515 19.9966854,18.39077 20.3663947,19.1128506 C20.8222845,19.9940337 21.5611933,20.8257522 22.4882713,21.5238654 C23.4148394,22.2219786 24.5234574,22.7920959 25.717746,23.1551759 C25.7631311,23.1679245 26.3918919,23.3474248 27.1527282,23.5651708 C27.908975,23.7834268 28.7967874,24.0429883 29.3587455,24.2112698 C29.6845997,24.3152983 30.0476798,24.4448241 30.3760836,24.6391127 C30.7024477,24.835951 30.9961754,25.0970423 31.181795,25.4580826 C31.3031617,25.6977562 31.3679245,25.9593575 31.3745538,26.2423763 C31.3827129,26.5253952 31.3352881,26.8303417 31.2231005,27.1500765 C30.9467109,27.9751657 30.5254972,28.5044875 29.7192759,28.8308516 C28.9176441,29.154666 27.736104,29.2586945 25.9426313,29.2714431 L3.55303417,29.2714431 L0.0140234574,38.9960734 L23.9788373,38.9960734 C26.2343192,38.9960734 30.3567058,38.9960734 34.3189699,37.3127486 C38.281744,35.6299337 42.0798062,32.263794 43.6891892,25.5315145 C44.2965324,23.0037226 44.1083631,20.9404895 43.1170321,19.3224375 C42.1211117,17.7018358 40.3235594,16.5284549 37.7070372,15.7788373 C37.7070372,15.7788373 37.1190719,15.6080061 36.4301377,15.4096379 C35.745283,15.2127996 34.9497705,14.9858746 34.5438552,14.8690974 C33.8742988,14.6793983 33.3597654,14.2903111 33.0527792,13.7956655 C32.7529322,13.3030597 32.6596124,12.7043855 32.8329934,12.0929628 C33.0145334,11.4575727 33.4464559,10.9501785 34.0752167,10.600357 C34.7060173,10.2525752 35.5336563,10.0598164 36.4989801,10.0598164 L50.4301377,10.0598164 C50.5295767,9.91754207 50.618307,9.76404895 50.717746,9.62126466 C53.2608363,6.02208057 56.3414074,3.10979092 59.7141764,1.05267721" id="Fill-3"></path>
                <path d="M178.152116,1.11713412 C178.897654,1.70509944 179.535084,2.37669556 180.068995,3.14161142 C181.434625,5.1099949 181.956808,7.44757777 181.643702,10.1247833 L188.630954,10.1247833 L178.100102,39.0691994 L188.622285,39.0691994 L199.159255,10.1247833 L212.677868,10.1247833 L215.959867,1.11713412 L178.152116,1.11713412 Z" id="Fill-5"></path>
                <path d="M167.4154,13.2206017 C166.287404,16.2562978 164.265477,18.1313616 160.41744,18.1313616 L160.400102,18.1313616 L158.410301,18.127282 L161.815706,8.95135135 L163.750943,8.95135135 C167.292504,8.95135135 168.614788,9.98857726 167.4154,13.2206017 M177.628047,4.83763386 C175.895767,2.34655788 172.374095,1.12371239 166.855482,1.11708312 L154.080877,1.11708312 L140.265987,39.0609893 L152.000306,39.0609893 L157.025293,25.7060683 C157.267517,26.2552779 160.23182,39.0609893 160.23182,39.0609893 L172.570423,39.0609893 C172.570423,39.0609893 170.32565,29.6515043 168.674962,25.8514023 C168.251708,24.87282 167.808567,23.7769505 167.216522,22.8631311 C170.701479,21.5688934 175.752983,18.7861295 177.842223,13.1537991 C179.130342,9.69026007 179.05436,6.89219786 177.628047,4.83763386" id="Fill-7"></path>
                <path d="M69.9217746,19.891229 C66.6703723,28.7928098 64.308822,31.0335033 60.7565528,31.0335033 L60.7504335,31.0335033 C57.290974,31.0289138 56.0767976,28.8402346 59.3134115,19.981999 C61.7330954,13.3685365 64.8641509,9.14059153 68.6555839,9.14059153 L68.6576237,9.14059153 C72.2593575,9.14467109 73.0849567,11.2318715 69.9217746,19.891229 M81.0788373,4.64849567 C79.1838858,1.93712392 75.936563,0.558745538 71.4230495,0.554665987 C68.4720041,0.554665987 65.6025497,1.23289138 62.9171851,2.50112188 C59.0716981,4.31805201 55.5887812,7.35578786 52.7432942,11.3812851 C50.8937277,13.9972973 49.3123916,17.0263641 48.0722081,20.4164712 C45.7387047,26.809128 45.7647119,32.0008669 48.154309,35.4190209 C49.5066803,37.354768 52.3195309,39.6643039 58.0431413,39.6688934 L58.0645589,39.6688934 C68.4893422,39.6688934 76.2715961,32.8351351 81.199694,19.3619072 C82.5005609,15.7948496 84.218052,9.14263131 81.0788373,4.64849567" id="Fill-9"></path>
                <path d="M122.735084,1.09500255 L100.561703,1.09500255 C94.3628251,1.09500255 89.7478327,4.23217746 87.5703723,10.1026517 L77.0374809,39.0383988 L88.572922,39.0383988 L93.9849567,24.1628251 L104.182815,24.1720041 L107.082356,16.2036206 L96.9191739,16.1969913 L98.554564,11.5845487 C98.8977562,10.7589495 99.7106068,10.1026517 100.904895,10.1026517 C101.570882,10.1026517 109.052779,10.1026517 112.928863,10.1041815 C113.027792,9.96190719 113.116522,9.80841407 113.215961,9.66359001 C115.758542,6.06644569 119.360785,3.15211627 122.735084,1.09500255" id="Fill-11"></path>
                <path d="M132.820398,19.891229 C129.568995,28.7928098 127.207445,31.0335033 123.657726,31.0335033 L123.649057,31.0335033 C120.188067,31.0289138 118.98001,28.8402346 122.216624,19.981999 C124.631719,13.3685365 127.766854,9.14059153 131.552167,9.14059153 L131.558287,9.14059153 C135.16053,9.14467109 135.98562,11.2318715 132.820398,19.891229 M143.98001,4.64849567 C142.082509,1.93712392 138.839776,0.558745538 134.319633,0.554665987 C131.370627,0.554665987 128.503723,1.23289138 125.816318,2.50112188 C121.972361,4.31805201 118.489444,7.35578786 115.643957,11.3812851 C113.794391,13.9972973 112.213055,17.0263641 110.975421,20.4164712 C108.635288,26.809128 108.665885,32.0008669 111.054972,35.4190209 C112.407853,37.354768 115.220704,39.6643039 120.946354,39.6688934 L120.965732,39.6688934 C131.387965,39.6688934 139.172259,32.8351351 144.096277,19.3619072 C145.401224,15.7948496 147.116675,9.14263131 143.98001,4.64849567" id="Fill-13"></path>
                <path d="M178.166089,1.07480877 C178.909587,1.66277409 179.549057,2.33233044 180.082458,3.09928608 C181.448088,5.06562978 181.96874,7.40525242 181.657675,10.0824579 L188.644926,10.0824579 L178.114074,39.026874 L188.635747,39.026874 L199.170678,10.0824579 L212.691841,10.0824579 L215.97129,1.07480877 L178.166089,1.07480877 Z" id="Fill-15"></path>
                <path d="M167.426874,13.1782764 C166.300918,16.2119327 164.276951,18.0869964 160.428914,18.0869964 L160.413616,18.0869964 L158.423814,18.0829169 L161.82667,8.90902601 L163.764457,8.90902601 C167.306017,8.90902601 168.627792,9.94370219 167.426874,13.1782764 M177.639521,4.79530852 C175.909281,2.30423253 172.387608,1.08138705 166.869505,1.07475778 L154.093881,1.07475778 L140.27746,39.0186639 L152.01331,39.0186639 L157.036767,25.663743 C157.28103,26.2129526 160.242784,39.0186639 160.242784,39.0186639 L172.583937,39.0186639 C172.583937,39.0186639 170.337124,29.609179 168.688985,25.8070372 C168.265222,24.8304946 167.822081,23.7346252 167.230036,22.818256 C170.714992,21.5245283 175.764457,18.7438042 177.855737,13.1114737 C179.141305,9.64793473 179.065324,6.84987251 177.639521,4.79530852" id="Fill-17"></path>
                <path d="M69.9337073,19.8488526 C66.6823049,28.7504335 64.3207547,30.9885773 60.7684855,30.9885773 L60.7623661,30.9885773 C57.3029067,30.9865375 56.0892402,28.7958185 59.3278939,19.9375829 C61.745028,13.3241203 64.8760836,9.09617542 68.6675166,9.09617542 L68.6695563,9.09617542 C72.2733299,9.10025497 73.0989291,11.1894952 69.9337073,19.8488526 M81.0928098,4.60611933 C79.1958185,1.89474758 75.9505354,0.516369199 71.4354921,0.509739929 C68.481897,0.509739929 65.6149924,1.19051504 62.9291178,2.45670576 C59.0836308,4.27567568 55.6007139,7.31137175 52.7552269,11.3383988 C50.9077002,13.9528812 49.3243243,16.9839878 48.0861805,20.3715451 C45.7506374,26.7667517 45.7766446,31.9584906 48.1662417,35.3766446 C49.5211627,37.3123916 52.3340133,39.6198878 58.0550739,39.6265171 L58.0770015,39.6265171 C68.5012749,39.6265171 76.2835288,32.7927588 81.2116267,19.3174911 C82.5124936,15.7504335 84.2325344,9.09770525 81.0928098,4.60611933" id="Fill-19"></path>
                <path d="M122.749006,1.05267721 L100.575115,1.05267721 C94.3741968,1.05267721 89.7597144,4.18985212 87.581744,10.0598164 L77.0488526,38.9960734 L88.5863335,38.9960734 L93.9983682,24.1204997 L104.194187,24.127129 L107.093728,16.1612953 L96.9305456,16.154666 L98.5679755,11.5422234 C98.909128,10.7145844 99.7240184,10.0577766 100.916777,10.0577766 C101.581744,10.0577766 109.066191,10.0598164 112.942274,10.0598164 C113.039164,9.91958185 113.127894,9.76404895 113.227333,9.62126466 C115.772463,6.02208057 119.374197,3.10979092 122.749006,1.05267721" id="Fill-22"></path>
                <path d="M132.83284,19.8488526 C129.580928,28.7504335 127.221928,30.9885773 123.671698,30.9885773 L123.663539,30.9885773 C120.2,30.9865375 118.991943,28.7958185 122.226517,19.9375829 C124.644161,13.3241203 127.777257,9.09617542 131.56461,9.09617542 L131.570729,9.09617542 C135.172463,9.10025497 135.998062,11.1894952 132.83284,19.8488526 M143.991943,4.60611933 C142.094952,1.89474758 138.852218,0.516369199 134.334115,0.509739929 C131.38307,0.509739929 128.515655,1.19051504 125.830801,2.45670576 C121.984804,4.27567568 118.501377,7.31137175 115.6564,11.3383988 C113.806833,13.9528812 112.227537,16.9839878 110.987353,20.3715451 C108.649771,26.7667517 108.677817,31.9584906 111.069454,35.3766446 C112.419786,37.3123916 115.232636,39.6198878 120.960836,39.6265171 L120.977664,39.6265171 C131.402448,39.6265171 139.186741,32.7927588 144.10872,19.3174911 C145.415706,15.7504335 147.131158,9.09770525 143.991943,4.60611933" id="Fill-24"></path>
            </g>
        </g>
    </g>
</svg>