<?xml version="1.0" encoding="UTF-8"?>
<svg width="159px" height="40px" viewBox="0 0 159 40" version="1.1" xmlns="http://www.w3.org/2000/svg" xmlns:xlink="http://www.w3.org/1999/xlink">
    <!-- Generator: Sketch 46.2 (44496) - http://www.bohemiancoding.com/sketch -->
    <title>ing</title>
    <desc>Created with Sketch.</desc>
    <defs></defs>
    <g id="Footer" stroke="none" stroke-width="1" fill="none" fill-rule="evenodd">
        <g id="ing" fill="#346275">
            <g id="Group-2">
                <path d="M0.988819876,5.792 L0,5.792 L0,4.5746087 L15.0509317,4.5746087 L15.0509317,5.792 L14.1515528,5.792 C12.9301863,5.792 12.0814907,6.04640994 11.557764,6.57212422 C10.9783851,7.15050932 10.72,8.1035528 10.72,9.66479503 L10.72,29.227528 C10.72,31.9028075 11.2795031,33.1023106 14.5967702,33.1420621 L15.0509317,33.1480248 L15.0509317,34.342559 L0,34.342559 L0,33.1420621 L0.459130435,33.1420621 C3.80819876,33.1420621 4.37565217,31.9356025 4.37565217,29.227528 L4.37565217,9.66479503 C4.37565217,8.09957764 4.11627329,7.14156522 3.53590062,6.56318012 C3.01913043,6.04541615 2.18534161,5.792 0.988819876,5.792 Z M49.1259627,24.3644224 C49.1259627,24.3644224 48.8645963,23.1430559 48.8268323,22.4583354 L48.8268323,13.5231801 C48.7681988,8.31373913 49.4787578,5.71995031 44.9232298,5.7388323 L44.9232298,4.56914286 L55.4027329,4.56914286 L55.4027329,5.7388323 C50.7110559,5.71995031 51.3013665,8.31373913 51.275528,13.5231801 L51.275528,34.3867826 L49.7838509,34.370882 L27.1522981,10.6888944 C27.1522981,10.6888944 27.4077019,11.9092671 27.4454658,12.5929938 L27.4454658,27.2245466 C27.3172671,32.5621863 27.9781366,33.2071553 31.416646,33.1445466 L31.416646,34.3639255 L20.4919255,34.3639255 L20.4919255,33.1445466 C23.9354037,33.1485217 24.6121739,32.6913789 24.6081988,26.7892671 L24.6081988,27.1430559 L24.6081988,12.7231801 L24.5793789,10.4344845 C24.7085714,7.472 23.6144099,5.75373913 20.2732919,5.78255901 L20.2732919,4.61088199 L30.3314286,4.61088199 L49.1259627,24.3644224 Z M87.0597764,4 L87.9005217,14.1227329 L86.7705839,14.1227329 L86.6731925,13.7957764 C86.0292174,11.6372671 85.1735652,10.3304348 83.5208944,8.97888199 C81.4925714,7.37093168 78.5370435,6.27776398 75.9909565,6.27776398 C73.1397764,6.27776398 70.6413913,7.32322981 68.7601491,9.20347826 C66.3969193,11.5647205 65.250087,15.2397516 65.250087,19.5478261 C65.250087,23.5468323 66.4346832,27.0857143 68.8625093,29.515528 C70.9355528,31.5865839 73.635677,32.7592547 76.6697143,32.7592547 C78.7199006,32.7592547 80.3457391,32.1997516 82.581764,30.7229814 L82.581764,23.4891925 C82.581764,20.7383851 82.0133168,20.197764 78.9981615,20.0804969 L78.557913,20.0645963 L78.557913,18.9058385 L91.7842484,18.9058385 L91.7842484,20.0645963 L91.344,20.0804969 C88.6359255,20.1908075 88.228472,20.7085714 88.228472,24.0357764 L88.228472,31.8419876 L87.5218882,32.2255901 C83.4801491,34.3940373 80.8466087,35.0559006 76.2463602,35.0559006 C70.7248696,35.0559006 66.9236273,33.8176398 63.5318261,30.9157764 C60.1648696,28.0168944 58.5211429,24.5744099 58.4992795,20.390559 C58.4764224,16.0218634 60.0933168,11.981118 63.0488447,9.01068323 C66.2667329,5.77888199 70.7715776,4 75.7375404,4 C78.2895901,4 81.3226335,4.62509317 83.6610186,5.63875776 C84.1986584,5.8842236 84.6766708,5.97465839 84.868472,5.97465839 C85.5402733,5.97465839 85.7728199,4.9868323 85.852323,4.39652174 L85.9069814,4 L87.0597764,4 Z" id="Combined-Shape"></path>
                <path d="M157.119409,19.8137603 C158.167856,22.8815863 158.540527,26.4860584 157.829968,29.7099093 C157.681893,30.3946298 157.482142,31.0594745 157.231707,31.7004683 C156.893819,32.7359963 156.374067,33.6025801 155.714191,34.5277975 C154.964875,35.5802199 154.038664,36.5422075 153.008104,37.3730149 C151.055309,38.7394745 148.536055,39.3546298 146.051583,38.9730149 C145.465247,39.513636 144.685123,39.4937603 143.949719,39.6060584 L137.31916,39.6060584 C137.225744,39.1509031 137.569595,38.9650646 137.542763,38.5099093 C137.628229,38.0418348 137.765372,37.4654373 138.276179,37.3282944 C138.296055,37.3094124 138.314937,37.2994745 138.304999,37.2805925 C138.471955,37.7168658 138.67767,38.1918969 138.928104,38.6212137 C139.264005,38.4343814 139.44885,38.0706547 139.487608,37.7009652 C139.421024,37.2895366 139.124875,36.9645677 138.815806,36.657487 L138.72239,36.6296609 C138.994688,36.4338845 139.095061,36.0989776 139.328601,35.8475491 C139.571086,36.0989776 139.858291,36.5263068 140.249844,36.3881702 C140.38003,36.332518 140.574813,36.2579839 140.583757,36.0711516 C140.537049,36.0065553 140.574813,35.8952509 140.471459,35.8773627 C139.840403,35.4768658 139.289844,34.3240708 138.435185,34.9084186 C137.645123,35.7740087 136.974316,36.723077 136.809347,37.8579839 L136.649347,39.6060584 C136.257794,39.5871764 135.830465,39.6905304 135.467732,39.6060584 C135.58003,38.7782323 135.327608,37.9504062 135.516427,37.1215863 C135.730092,37.048046 135.895061,37.3282944 136.092825,37.4395988 C136.11767,37.4942571 136.203136,37.4942571 136.231955,37.4395988 C136.30649,37.1692882 136.688104,36.9367416 136.475434,36.6296609 C136.370092,36.3692882 136.082887,36.1655615 135.869223,35.9598472 C135.933819,35.6438224 136.176303,35.3914 136.34326,35.1141329 C136.4168,35.1240708 136.389968,35.1777354 136.426738,35.2254373 C136.575806,35.3834497 136.789471,35.429164 136.98326,35.4013379 C137.066738,35.3735118 137.309223,35.3914 137.188974,35.2254373 C137.162142,35.057487 136.956427,34.8825801 137.096552,34.732518 C137.430465,34.6132634 137.889595,35.0515242 138.134067,34.6589776 C138.155931,34.6251888 138.175806,34.5854373 138.194688,34.5377354 C137.608353,34.1839466 137.013073,33.8311516 136.231955,34.0448162 C135.795682,33.9861826 135.706241,34.4562447 135.413073,34.6589776 C135.382266,34.6788534 135.347483,34.6987292 135.310713,34.713636 C134.604129,34.5923938 133.868726,34.8348783 133.217794,34.8438224 L132.028229,36.657487 C132.055061,37.2517727 131.952701,38.0159963 132.213073,38.5735118 C132.44562,38.9273006 132.639409,39.2244435 132.808353,39.6060584 L120.06798,39.6060584 C120.251831,39.1966174 120.617545,38.7782323 120.911707,38.4622075 C120.950465,38.5923938 121.127359,38.5923938 121.230713,38.6659342 L122.123136,38.8438224 C122.432204,38.732518 122.764129,38.6400957 123.014564,38.4145056 C122.476924,38.1273006 121.890589,37.9583565 121.3609,37.6622075 C121.414564,36.9745056 121.705744,36.0532634 121.117421,35.5126422 C120.801396,35.2711516 120.384005,35.2612137 120.001396,35.1777354 C119.565123,35.3287913 119.072204,35.532518 118.838664,35.9876733 C118.495806,35.6338845 118.113198,35.3089155 117.657049,35.1777354 C117.672949,35.0107789 117.705744,34.8368658 117.738539,34.6589776 C117.773322,34.4920211 117.808104,34.3220832 117.835931,34.1561205 C118.532577,33.7556236 119.361396,34.2028286 120.06798,34.379723 C120.224999,34.379723 120.365123,34.4721453 120.514191,34.4274248 C120.5609,34.3051888 120.355185,34.3051888 120.355185,34.1750025 C119.705247,33.1971143 118.561396,33.0858099 117.408601,33.2348783 C116.915682,33.2825801 116.915682,34.3051888 116.402887,33.7933876 C116.022266,33.6900335 115.687359,33.9782323 115.286862,33.9782323 L114.53357,34.2664311 C114.45208,34.3956236 114.376552,34.5268037 114.299036,34.6589776 C113.91444,35.3198472 113.575558,36.0015863 113.239657,36.6753752 C113.278415,37.2895366 113.035931,38.0418348 113.388726,38.5735118 C113.55767,38.9173627 113.781272,39.3178596 114.023757,39.6060584 L97.589471,39.6060584 C97.0130734,38.8348783 96.657297,37.7884186 96.855061,36.7836981 C96.9931977,36.3364932 97.2168002,35.8912758 97.636179,35.6020832 C97.6163033,35.283077 97.6689741,34.9879217 97.7792846,34.7195988 C97.9402784,34.3310273 98.2254958,33.9991019 98.5922039,33.7228286 C99.1049989,33.3789776 99.772825,33.2676733 100.42475,33.3889155 C101.158167,32.6167416 102.3209,32.403077 103.326614,32.7379839 C103.569098,32.8403441 103.802639,32.9516484 104.015309,33.1017106 C104.545993,32.0622075 104.677173,30.8537603 105.104502,29.772518 C105.155185,29.6413379 105.209844,29.5151267 105.271459,29.3909031 C105.698788,28.4964932 105.98798,27.4768658 106.497794,26.6132634 C105.745496,24.5392261 105.087608,22.3638224 104.670216,20.1605925 C104.687111,20.0333876 104.762639,19.9161205 104.858042,19.8137603 C104.947483,19.7203441 105.053819,19.6398472 105.141272,19.5812137 C105.330092,19.1359963 105.487111,18.6798472 105.607359,18.2157478 C105.393695,18.2425801 105.189968,18.4284186 104.957421,18.4850646 C104.827235,18.6897851 104.621521,18.8577354 104.556924,19.090282 C104.444626,19.0515242 104.417794,18.8199714 104.381024,18.6609652 C104.427732,18.0656857 103.971583,17.3511516 104.510216,16.8761205 L105.04885,16.4299093 C105.057794,15.9916484 105.116427,15.565313 105.161148,15.1369901 L105.067732,15.1369901 C104.780527,15.405313 104.30649,15.6299093 104.221024,16.0294124 L104.177297,16.0294124 L104.157421,14.1322696 C104.332328,13.9941329 104.574813,13.8798472 104.762639,13.7049404 C104.677173,11.584195 104.827235,9.51015777 105.401645,7.63984721 C105.580527,7.18469193 105.94326,6.82195901 106.210589,6.41450559 C106.240403,5.88183478 106.220527,5.33425714 106.342763,4.85028199 C106.686614,4.64655528 106.994688,4.28382236 107.34649,4.06916398 C107.189471,3.93897764 106.91916,3.94891553 106.704502,3.91115155 C107.010589,3.07537516 107.662514,2.37574783 108.305496,1.74469193 C108.592701,1.52108944 108.871955,1.28854286 109.195931,1.16829441 C109.301272,1.15835652 109.354937,1.2318969 109.421521,1.29848075 C110.071459,1.36208323 110.657794,1.62344969 111.31767,1.58568572 C111.104005,1.24282857 110.731334,0.897983853 110.295061,0.897983853 L110.376552,0.852269567 C110.962887,0.600840996 111.366365,0.432890685 111.999409,0.311648449 C112.091831,0.833387579 112.629471,1.1782323 112.814316,1.65226957 L113.196924,1.96730062 C113.132328,1.34419503 113.367856,0.525313045 112.761645,0.0890397533 C112.732825,-0.0322024827 112.872949,-0.00338260695 112.940527,0.02444348 C113.645123,0.311648449 114.339782,0.694257145 115.001645,1.07587205 C115.411086,0.878108076 115.83444,0.655499381 116.253819,0.498480747 C116.123632,1.10171056 115.820527,1.76357391 115.828477,2.48009565 C116.127608,2.26444348 116.331334,1.86494037 116.618539,1.56680373 C116.591707,1.13947454 116.989223,0.814505592 117.129347,0.451772673 C117.622266,0.311648449 118.422266,0.219226089 118.905247,0.451772673 C118.40239,0.535250933 118.479906,0.945685716 118.489844,1.27959876 L118.534564,1.31537516 C118.917173,1.2318969 119.452825,1.08481615 119.748974,0.785685716 C120.261769,0.870157766 120.599657,0.945685716 121.009098,1.25077888 C120.656303,1.41972298 120.209098,1.57674162 119.958664,1.94841864 C120.526117,1.92953665 121.129347,1.89376025 121.697794,1.8092882 L121.948229,1.65226957 C123.408104,2.56357391 123.882142,4.15264224 124.423757,5.58568572 C124.226986,5.54792174 124.03121,5.38891553 123.800651,5.36208323 C123.864254,5.6314 123.891086,6.05077888 124.263757,6.14320124 C124.719906,6.19090311 124.821272,6.6182323 125.073695,6.92431926 C125.723632,7.56730062 126.672701,7.96580994 127.036427,8.8403441 C127.751955,10.021959 127.761893,11.5007168 128.198167,12.793636 C127.946738,12.4587292 127.379285,12.5700335 127.055309,12.2530149 C127.109968,12.6535118 127.342514,13.0897851 127.70326,13.3322696 C128.020278,13.5002199 128.356179,13.6115242 128.69208,13.7516484 C129.054813,14.3836981 129.191955,15.0992261 129.313198,15.8256857 C129.044875,15.6666795 128.784502,15.5176112 128.487359,15.4251888 L128.441645,15.4718969 C128.478415,16.0751267 128.90475,16.586928 129.425496,16.8572385 C129.444378,17.368046 129.472204,17.8261826 129.491086,18.3071764 C130.395434,19.0356236 131.58798,19.6686671 132.767608,19.8137603 C132.99121,19.8425801 133.221769,19.8535118 133.460278,19.8425801 C133.708726,19.8445677 133.953198,19.7571143 134.194688,19.7362447 C135.172577,19.6537603 136.072949,19.3794745 136.872949,18.8706547 C136.799409,18.2107789 137.013073,17.6065553 137.524875,17.1603441 C138.239409,16.370282 139.41208,16.4150025 140.361148,16.6664311 C141.909471,17.2438224 143.116924,18.398605 144.085868,19.7362447 C144.898788,20.8572385 145.546738,22.1074248 146.090341,23.2522696 C146.939036,25.2487913 147.39916,27.3238224 147.495558,29.6314 C147.497545,29.6999714 147.499533,29.7685429 147.503508,29.8361205 C147.581024,31.424195 147.447856,33.0152509 147.152701,34.5277975 C147.102018,34.7951267 147.045372,35.0594745 146.981769,35.3178596 C146.944999,35.5126422 147.169595,35.532518 147.2809,35.6060584 C149.054813,36.0930149 150.774067,35.6150025 152.171334,34.5277975 C152.614564,34.1839466 153.022018,33.7794745 153.390713,33.3273006 C154.36562,32.2599714 154.974813,31.0236981 155.525372,29.7099093 C156.563881,26.5576112 156.368104,22.8378596 155.331583,19.8137603 C155.276924,19.6517727 155.219285,19.4907789 155.156676,19.3317727 C153.918415,16.0204683 151.075185,12.530282 147.744005,11.0058099 C146.387483,10.7722696 145.15121,11.4420832 143.745993,11.1171143 C142.768104,10.8279217 141.813073,10.3439466 141.11444,9.52407081 L141.141272,9.44158634 C141.690837,9.50817019 142.210589,9.63636895 142.705496,9.84307702 C142.723384,9.60953665 142.489844,9.42270435 142.453073,9.19115155 C143.029471,9.05003354 143.605868,8.92183478 144.22003,8.88407081 C143.886117,8.15860497 143.019533,8.53127578 142.481893,8.21525093 C142.286117,8.20531305 142.070465,8.12978509 141.896552,8.21525093 C141.94326,8.43785963 142.080403,8.63363603 142.070465,8.88407081 C141.78326,8.95761118 141.504005,8.74394659 141.206862,8.7250646 C141.003136,8.74394659 140.750713,8.61376025 140.601645,8.79164845 C140.007359,8.02742485 139.793695,6.90344969 138.771086,6.44730062 L138.797918,6.35487826 C140.461521,5.93549938 142.006862,5.0718969 143.886117,5.28556149 C144.089844,5.33028199 144.303508,5.36804596 144.491334,5.46146211 L143.998415,5.9066795 C144.442639,6.32705218 144.955434,6.66990932 145.605372,6.65202112 L145.644129,6.60431926 C145.597421,6.27935031 145.411583,6.01102733 145.242639,5.73077888 C145.857794,5.83413292 146.313943,6.40059255 146.78798,6.82990932 C147.660527,8.37127578 149.083632,9.86494037 150.630962,10.8289155 C153.3768,12.5422075 155.156676,15.4629528 156.467483,18.1690398 C156.70798,18.6957478 156.92562,19.245313 157.119409,19.8137603 Z M141.047955,6.91299006 C141.29044,7.0342323 141.52398,7.14553665 141.813173,7.16441864 C142.006962,7.06205839 142.259384,6.98653044 142.499881,7.05311429 C142.845719,7.27572298 143.263111,7.00541242 143.662614,7.02429441 C143.308825,6.68938758 142.907334,6.48367329 142.499881,6.28889068 C141.978142,6.40019503 141.56075,6.77286584 141.047955,6.91299006 Z M121.568204,10.1791764 C121.391309,10.411723 121.121993,10.4683689 120.89839,10.5130894 C121.288949,9.79954907 121.474788,8.80277888 121.168701,7.99383478 C121.372427,7.92029441 121.595036,7.88253044 121.789819,7.77122609 L121.771931,7.7523441 L122.284726,7.30613292 C122.961496,6.84103975 122.702117,5.95756149 122.952552,5.29669193 C122.618639,4.77694037 122.515285,4.1438969 122.032303,3.70662982 L122.061123,3.68774783 C121.678514,3.20377267 120.989819,3.26041864 120.470067,3.01892795 C119.780378,2.78638137 119.250688,3.26041864 118.757769,3.57544969 C118.544104,3.61420746 118.674291,3.89246832 118.441744,3.88253044 C118.311558,4.22638137 118.151558,4.59905218 118.061123,4.98066708 C117.138887,4.85048075 116.145098,4.952841 115.411682,5.47458013 C115.019136,5.18538758 114.546092,5.12973541 114.089943,4.99954907 C113.754042,4.93296522 113.373421,5.05420746 113.132924,4.86936273 C112.779136,4.46985963 112.703608,3.74439379 112.09839,3.64203354 C111.884726,3.56749938 111.840005,3.33395901 111.840005,3.1302323 C111.438514,3.06364845 111.084726,2.87880373 110.697148,2.79532547 C110.100875,2.52501491 109.62485,2.95433168 109.178639,3.24253044 C108.982862,3.32501491 108.75926,3.352841 108.575409,3.46414534 C108.239508,3.98687826 107.924477,4.5165677 107.709819,5.09197143 C107.775409,5.56700249 107.979136,5.98439379 108.22162,6.38588447 C108.435285,6.99110187 109.103111,7.46513913 109.671558,7.70662982 C109.402241,8.62687826 109.402241,9.72402112 109.671558,10.6532137 C109.671558,10.6532137 109.656651,10.6671267 109.656651,10.6631516 C109.656651,10.6671267 109.62485,10.6909776 109.62485,10.6909776 C109.53839,10.6909776 109.442986,10.7088658 109.369446,10.6631516 L109.357521,10.6631516 C109.489695,11.5515988 109.907086,12.3307292 110.583856,12.9975615 C110.826341,13.0810398 110.768701,13.3702323 110.871061,13.555077 C110.937645,13.6395491 110.946589,13.8164435 110.917769,13.8899839 C109.465844,13.8442696 108.172924,14.2079963 107.011185,14.8668783 C106.71603,15.0169404 106.846216,15.4253876 106.816403,15.7135863 C107.635285,15.1729652 108.518763,14.7744559 109.495657,14.5965677 C109.912055,14.5697354 110.38808,14.4663814 110.787583,14.5776857 L110.834291,15.3796733 C109.728204,15.9560708 108.518763,16.2899839 107.571682,17.2390522 C107.58957,17.5272509 107.532924,17.861164 107.616403,18.1036484 L108.462117,17.4149528 C109.281993,16.7918472 110.135657,16.2621578 111.074788,15.9183068 C111.32721,16.2154497 111.587583,16.5324683 111.923483,16.7183068 C112.489943,16.3545801 113.103111,16.0842696 113.754042,15.9183068 C114.0969,15.7135863 114.648452,15.8994248 114.872055,15.4909776 L115.029073,14.6442696 C115.002241,14.6253876 114.982365,14.5876236 114.935657,14.5965677 C114.499384,14.3451391 114.210191,13.9088658 114.246962,13.3980584 C114.0969,13.4715988 113.931931,13.5193006 113.754042,13.5272509 C113.605968,13.4914745 113.466837,13.4527168 113.400254,13.3036484 C113.392303,13.1188037 113.297893,12.8395491 113.485719,12.7004186 C114.089943,12.3287416 114.872055,12.3098596 115.632303,12.364518 C116.199757,12.440046 117.018639,12.4112261 117.216403,13.0810398 C117.187583,13.2778099 117.206465,13.4914745 117.008701,13.6216609 C116.804974,13.7329652 116.572427,13.611723 116.387583,13.5272509 C116.238514,13.9843938 115.98808,14.4952012 115.475285,14.6442696 L115.541868,15.1829031 C115.605471,15.4253876 115.623359,15.8258845 116.004974,15.7404186 C116.888452,15.9560708 117.670564,16.4112261 118.441744,16.9031516 C118.703111,16.6437727 118.906837,16.345636 119.09367,16.0753255 C120.470067,16.5414124 121.659632,17.573959 122.794539,18.5329652 L122.841247,17.7498596 C121.761993,16.7918472 120.56249,16.1130894 119.314291,15.5834 C119.362986,15.3329652 119.419632,15.089487 119.42957,14.8201702 C120.906341,14.9046422 122.311558,15.3607913 123.528949,16.0753255 L123.509073,15.4055118 C122.226092,14.7178099 120.822862,14.2626547 119.289446,14.2437727 C119.2328,14.1602944 119.213918,14.0390522 119.223856,13.9555739 C119.96721,13.8353255 120.4969,13.0631516 120.675782,12.3933379 C121.055409,11.9560708 121.604974,11.4820335 121.474788,10.8311019 C121.490688,10.7764435 121.50957,10.7197975 121.529446,10.6631516 C121.580129,10.5021578 121.622862,10.3302323 121.568204,10.1791764 Z M122.860924,12.5704311 L123.622167,12.3279466 L123.707632,11.9016112 C123.920303,11.2775118 123.464154,10.8124186 123.241545,10.3185056 L122.860924,12.5704311 Z M137.429968,33.3274994 C137.692328,33.4487416 138.026241,33.235077 138.276676,33.0860087 C138.509223,33.0313503 138.704999,33.1615366 138.881893,33.2827789 C138.955434,33.4308534 138.881893,33.5699839 138.910713,33.7101081 C139.468229,33.8671267 140.017794,34.072841 140.510713,34.3978099 L140.667732,34.2397975 C140.704502,33.8402944 140.390465,33.5511019 140.091334,33.3274994 C139.894564,33.216195 139.605372,33.2827789 139.468229,33.1048907 C139.561645,32.9558224 139.561645,32.7322199 139.551707,32.5652634 C139.244626,32.5652634 139.04885,32.4718472 138.798415,32.3247665 C138.641396,32.2770646 138.499285,32.1468783 138.369098,32.3247665 C137.905993,32.6397975 137.876179,33.1048907 137.429968,33.3274994 Z M142.631856,33.8398969 C142.919061,34.4162944 143.552104,34.8535615 143.615707,35.5134373 C143.765769,35.3375366 143.866142,35.1338099 143.969496,34.9370398 C143.959558,34.7512012 143.745893,34.7512012 143.662415,34.6021329 C143.576949,34.3596484 143.707136,34.1469776 143.745893,33.933313 C143.625645,33.5884683 143.336452,33.2634994 143.01049,33.0577851 L142.631856,33.8398969 Z M143.775111,32.3695863 L144.442937,33.2828783 C144.730142,32.8267292 144.730142,32.1559217 144.619831,31.6073503 C144.555235,31.5059839 144.432999,31.3370398 144.26803,31.4125677 C144.015608,31.6729404 143.978837,32.0724435 143.775111,32.3695863 Z M138.835285,31.1428534 C138.780626,31.3008658 138.62162,31.5612385 138.910813,31.6357727 C139.505098,31.6536609 140.267334,31.3465801 140.733421,31.8126671 C140.89044,31.9329155 140.8169,32.1843441 140.806962,32.3433503 L141.58808,32.9932882 C141.663608,32.6017354 141.802738,32.2479466 141.812676,31.8305553 C141.747086,31.5324186 141.599011,31.2462075 141.337645,31.0504311 C140.82485,31.0504311 140.529695,30.4511764 139.978142,30.5247168 C139.690937,30.4601205 139.440502,30.7155242 139.151309,30.7155242 C139.021123,30.843723 138.945595,31.0027292 138.835285,31.1428534 Z M139.215707,29.7706298 C139.580427,29.6672758 139.81198,29.2697603 140.203533,29.2310025 C140.797819,29.2409404 141.327508,29.4834248 141.700179,29.9962199 C141.923782,30.1433006 141.877073,30.5249155 142.166266,30.5249155 C142.0808,30.0697603 142.229868,29.6513752 142.210986,29.1842944 C141.822415,28.5343565 140.853471,29.0372137 140.490738,28.2729901 L139.802042,28.3206919 C139.309123,28.4419342 139.441297,29.0183317 139.374713,29.4098845 C139.319061,29.5311267 139.207757,29.6235491 139.215707,29.7706298 Z M139.05849,26.757164 C139.178738,27.0085925 139.318862,27.4190273 139.551409,27.4448658 C140.098986,27.2053627 140.901968,27.0562944 141.514142,27.3166671 C141.717868,27.3534373 141.717868,27.5849901 141.673148,27.7340584 C141.987185,27.9198969 142.369794,28.0689652 142.705695,28.2726919 L142.612278,27.7151764 C142.593396,27.109959 141.830167,27.0562944 141.783459,26.4600211 C141.160353,26.2562944 140.461719,26.1907043 139.801844,26.3487168 C139.588179,26.5434994 139.282092,26.5176609 139.021719,26.5713255 C139.003831,26.6458596 139.048552,26.6935615 139.05849,26.757164 Z M138.528601,25.6130149 C138.72239,25.819723 139.048353,25.781959 139.328601,25.819723 L140.137545,25.5027043 C140.147483,25.3546298 139.895061,25.3168658 139.953695,25.1479217 C140.174316,24.8964932 140.481396,25.0753752 140.760651,24.9720211 C141.15121,24.9163689 141.550713,24.5268037 141.94326,24.8140087 C141.931334,24.8607168 141.960154,24.9263068 141.923384,24.9720211 C141.803136,25.2612137 142.006862,25.4381081 142.230465,25.5494124 C142.686614,25.6328907 143.112949,26.0512758 143.569098,25.8644435 C143.52239,25.4828286 143.42003,25.1320211 143.328601,24.7682944 C142.945993,24.7027043 142.676676,24.3876733 142.322887,24.2564932 C142.165868,24.4055615 141.960154,24.5168658 141.766365,24.4979839 C141.047856,24.3300335 140.192204,23.8838224 139.467732,24.3399714 C139.208353,24.6569901 138.742266,24.5625801 138.388477,24.7027043 C138.408353,25.0177354 138.443136,25.3268037 138.528601,25.6130149 Z M138.099583,23.5399714 C138.099583,23.5111516 138.099583,23.4823317 138.128403,23.4763689 C138.211881,23.5499093 138.119459,23.7268037 138.258589,23.7635739 C138.499086,23.6423317 138.722688,23.4763689 138.946291,23.3163689 C139.57039,23.3163689 139.942067,22.7121453 140.555235,22.7121453 C141.579831,22.8979839 142.592502,23.1036981 143.485918,23.6035739 C143.420328,23.0013379 142.899583,22.4507789 142.369893,22.1824559 C142.070763,22.0800957 141.838216,22.2371143 141.624552,22.4060584 C141.003434,22.7976112 141.327409,21.838605 140.891136,21.819723 C140.321695,21.9956236 139.737347,22.1923938 139.105297,22.1357478 C138.732626,22.2758721 138.472254,22.6187292 138.054862,22.581959 C138.03598,22.8900335 137.99126,23.2627043 138.099583,23.5399714 Z M138.082191,21.6252385 C138.314738,21.5586547 138.558216,21.4940584 138.752005,21.3261081 C139.375111,20.7596484 140.277471,21.1412634 141.002937,21.1323193 C140.863806,20.8808907 140.66803,20.6294621 140.491136,20.4157975 C140.230763,20.3134373 139.988278,20.192195 139.691136,20.192195 C139.058092,19.820518 138.631757,20.4436236 138.145794,20.7497106 C138.016601,21.0011391 137.952005,21.3738099 138.082191,21.6252385 Z M137.7929,18.6952509 C137.782962,18.9367416 137.608055,19.2060584 137.766067,19.4117727 C137.990664,19.1603441 138.359359,19.1692882 138.65849,19.0579839 C139.487309,18.9824559 140.277372,19.2438224 141.047558,19.4306547 C140.853769,19.1225801 140.723583,18.7777354 140.509918,18.5004683 C140.081595,18.3871764 139.430664,18.685313 139.357123,18.0522696 C139.095757,17.8286671 138.687309,17.9876733 138.417993,18.0065553 C138.155632,18.1923938 137.941968,18.4249404 137.7929,18.6952509 Z M112.750216,18.9315739 L113.308726,18.3929404 C113.355434,18.3929404 113.392204,18.4018845 113.42003,18.4376609 L113.373322,19.4702075 C113.642639,19.7206422 113.976552,19.8041205 114.330341,19.8230025 C114.35916,19.5457354 114.572825,19.3489652 114.693073,19.1074745 C114.796427,18.9116981 114.731831,18.6234994 114.935558,18.4853627 L115.002142,18.549959 C115.065744,18.8580335 115.046862,19.2008907 115.205868,19.4702075 C115.22475,19.6192758 115.252577,19.8041205 115.269471,19.9353006 C115.6809,19.9531888 116.051583,19.8428783 116.368601,19.6928162 C116.348726,19.3400211 116.470962,19.0518224 116.52562,18.7268534 C116.611086,18.6155491 116.422266,18.4098348 116.655806,18.4187789 C116.785993,18.6990273 117.018539,18.9862323 117.148726,19.2843689 C117.688353,18.7367913 117.912949,18.0202696 118.041148,17.274928 C117.884129,17.0622571 117.643632,17.0622571 117.454813,16.9221329 C115.875682,16.4113255 113.848353,16.309959 112.322887,17.0990273 C112.220527,17.731077 112.350713,18.4287168 112.750216,18.9315739 Z M106.119856,11.3889155 L106.657496,13.0634497 C106.647558,12.1143814 107.086813,11.3233255 106.995384,10.3563689 L107.3929,9.76108944 L106.547185,10.0224559 C106.323583,10.4497851 106.137744,10.8771143 106.119856,11.3889155 Z M106.482788,8.48754907 L107.216204,8.06021988 L107.216204,6.97102733 C106.910117,7.15686584 106.74316,7.47388447 106.502664,7.72332547 L106.482788,8.48754907 Z M124.784403,15.5174124 C125.147136,15.9179093 125.500924,16.5589031 126.142912,16.3651143 C126.096204,16.0938099 125.947136,15.8702075 125.853719,15.6297106 C125.686763,15.4339342 125.631111,14.8764186 125.297198,15.0712012 C125.044775,14.9042447 124.980179,14.6249901 124.821173,14.4023814 C124.74962,14.7462323 124.794341,15.1735615 124.784403,15.5174124 Z M124.91449,18.2429776 C125.054614,18.4377603 125.093372,18.6891888 125.230514,18.867077 C125.480949,19.0330398 125.85362,19.0052137 126.162688,18.9783814 C126.439955,18.9117975 126.618837,19.2188783 126.877223,19.0429776 C126.552254,18.8392509 126.356477,18.4665801 126.05039,18.1952758 C125.686664,17.9090646 125.297098,18.1604932 124.91449,18.2429776 Z M123.241347,20.160195 C123.668676,20.6888907 124.328552,20.4752261 124.933769,20.4941081 L124.933769,20.428518 L124.004577,19.6483938 C123.742216,19.7308783 123.464949,19.9634248 123.241347,20.160195 Z M120.989719,21.0526174 C121.352452,21.5266547 121.89208,21.8903814 122.505247,21.7691391 C122.19121,21.4610646 121.828477,21.1351019 121.808601,20.6988286 C121.902018,19.8710025 120.989719,19.8044186 120.543508,19.3770894 C120.692577,19.934605 120.675682,20.5587043 120.989719,21.0526174 Z M119.638862,22.9664559 C119.974763,23.4057106 120.708179,23.2566422 121.11762,23.1264559 C120.921844,22.7915491 120.292775,22.5947789 120.182465,22.2340335 C120.115881,21.5910522 119.986688,20.9669528 119.780974,20.382605 C119.454018,21.1736609 119.062465,22.1137851 119.638862,22.9664559 Z M97.9695952,36.3844932 C97.9129492,37.1020087 97.9695952,37.7728162 98.0163033,38.4803938 C98.1653716,38.7139342 98.4356821,38.9832509 98.7049989,39.0011391 L98.7497194,38.5261081 C98.8620175,37.8662323 98.5092225,37.1656112 98.8818933,36.6080957 C99.142266,36.6915739 99.4016449,36.8207665 99.6272349,36.9420087 C99.7375455,36.3278472 99.5785393,35.6123193 98.9922039,35.2396484 L97.9695952,36.3844932 Z M100.267732,35.379077 C99.9030113,36.4682696 99.6346884,37.8088907 100.071955,38.955723 C100.324378,38.7877727 100.581769,38.6287665 100.805372,38.3982075 C100.760651,37.5226795 100.638415,36.5895118 101.158167,35.8630522 C101.614316,36.0031764 101.923384,36.4394497 102.098291,36.8667789 C102.406365,36.4762199 102.507732,35.9365925 102.387483,35.416841 C102.406365,35.0064062 101.941272,35.1008162 101.71767,34.9328658 C101.79121,34.5890149 101.78326,34.1905056 102.146986,33.9927416 L101.030962,34.1050398 C100.741769,34.5154745 100.42475,34.9139839 100.267732,35.379077 Z M102.563881,38.5923938 C102.610589,38.6758721 102.563881,38.8249404 102.657297,38.8438224 C102.796427,38.0617106 103.429471,37.5568658 103.773322,36.8671764 C103.940278,36.6356236 103.932328,36.3086671 104.199657,36.1327665 C104.563384,36.1327665 104.82475,36.3921453 105.178539,36.4209652 C105.28885,36.5044435 105.121893,36.5799714 105.111955,36.6714 C105.038415,37.3054373 104.795931,37.8281702 104.842639,38.4810894 L104.906241,38.4810894 C105.401148,37.9583565 105.735061,37.3978596 106.098788,36.8015863 L106.16239,36.2728907 C106.247856,35.6398472 105.55916,35.2314 105.111955,34.9700335 L105.512452,34.4592261 L104.954937,34.2634497 C104.303011,34.328046 103.716676,34.5983565 103.260527,35.1111516 C102.694067,36.1526422 102.600651,37.3282944 102.563881,38.5923938 Z M105.065844,33.0731888 C105.279508,33.1367913 105.475285,32.9618845 105.688949,33.053313 C106.544601,33.3713255 107.43603,33.6962944 108.080005,34.4118224 L108.841247,36.3566671 L109.223856,35.1561702 L108.971434,34.5052385 C108.757769,34.0411391 108.171434,34.0789031 107.771931,34.0590273 C107.604974,33.8731888 107.780875,33.6585304 107.837521,33.4826298 C108.031309,32.8217603 107.222365,32.8585304 106.89839,32.5892137 C106.917272,32.1897106 106.432303,32.3278472 106.162986,32.2920708 L106.06957,32.1807665 C106.014912,32.0962944 105.874788,32.0962944 105.79926,32.1608907 C105.782365,32.1340584 105.745595,32.1141826 105.764477,32.0684683 L105.558763,32.1141826 C105.271558,32.3656112 105.075782,32.6905801 105.065844,33.0731888 Z M105.605471,30.9351516 C105.632303,31.0534124 105.706837,31.1746547 105.79926,31.2501826 C106.218639,31.1388783 106.620129,30.8496857 107.102117,31.0275739 C107.72721,31.5761453 108.377148,32.1525429 109.13044,32.4486919 L109.399757,32.4039714 C109.566713,32.457636 109.753545,32.4675739 109.863856,32.6544062 C109.969198,32.9058348 109.706837,33.0539093 109.623359,33.2586298 C110.042738,33.5657106 109.875782,34.114282 110.134167,34.4869528 L110.802986,33.5945304 C110.645968,33.2029776 110.812924,32.533164 110.199757,32.4963938 C109.994042,32.3940335 109.855906,32.1903068 109.863856,31.9567665 C109.466341,31.5940335 108.971434,31.4360211 108.572924,31.0633503 C108.244974,30.8049652 108.051185,30.4044683 107.633794,30.3110522 C107.344601,30.152046 107.028577,30.0695615 106.694664,29.9960211 C106.06957,29.9006174 106.014912,30.645959 105.605471,30.9351516 Z M106.498291,29.1009155 L106.610589,29.2797975 C107.076676,29.2499839 107.494067,29.0462571 107.948229,29.056195 C108.255309,29.2410398 108.6568,29.2311019 108.970837,29.3911019 C109.22326,29.7349528 109.49357,30.124518 109.864254,30.3560708 C110.618539,30.4683689 111.035931,31.2783068 111.296303,31.8725925 L111.296303,31.5853876 C111.408601,31.1848907 111.286365,30.7197975 111.139285,30.3560708 C110.952452,30.1712261 110.683136,30.0499839 110.487359,29.8840211 C110.450589,29.7627789 110.479409,29.7061329 110.516179,29.5948286 C110.226986,29.2877478 109.799657,29.1207913 109.446862,28.8783068 C108.953943,28.1627789 108.006862,28.3585553 107.251583,28.1627789 L106.498291,29.1009155 Z M120.244378,32.4811888 L120.309968,32.4811888 C120.867483,32.0349776 121.527359,31.8849155 122.187235,31.7010646 C122.364129,31.7656609 122.252825,31.9614373 122.412825,32.0349776 C122.810341,31.8690149 123.295309,31.9047913 123.702763,31.7656609 C124.196676,31.7835491 124.598167,31.793487 124.995682,32.0061578 C125.314688,32.4255366 125.905993,32.3788286 126.317421,32.659077 L126.251831,32.0061578 C125.388229,30.993487 124.038664,30.9199466 122.792452,30.9388286 L122.763632,30.8086422 C122.46649,30.8086422 122.132577,30.8722447 121.851334,31.0034248 C121.453819,31.021313 121.07121,31.2170894 120.690589,31.3373379 C120.513695,31.6911267 120.374564,32.1204435 120.244378,32.4811888 Z M120.896601,34.1271019 L121.006912,34.1271019 C121.497844,33.8210149 122.214365,34.0545553 122.699334,33.7285925 C122.969645,33.5884683 122.988527,33.9611391 123.173372,34.0634994 C123.629521,34.3417603 123.686167,35.1785304 124.326167,34.982754 C125.099334,35.3832509 124.902564,36.3223814 124.932378,37.0100832 L125.647906,36.5638721 C125.582316,36.2011391 125.78803,35.7638721 125.55449,35.448841 C125.378589,35.0483441 124.892626,35.0125677 124.662067,34.686605 C124.941322,34.2125677 124.309272,33.9869776 124.177098,33.6441205 L124.215856,33.5984062 L125.201695,33.7285925 C125.535608,33.933313 125.657844,34.3049901 125.75921,34.648841 C126.531384,34.7790273 126.715235,35.6525677 126.987533,36.211077 C127.144552,35.8304559 127.209148,35.4210149 127.368154,35.0483441 C127.377098,34.7412634 126.967657,34.7412634 126.763931,34.6021329 C126.708278,34.1271019 126.492626,33.6818845 126.075235,33.3946795 C125.219583,33.1780335 124.466291,32.7059839 123.526167,32.7059839 L122.746042,32.9464807 C122.317719,33.0498348 121.86157,32.9196484 121.537595,33.2157975 C121.05362,33.2545553 121.01685,33.7832509 120.896601,34.1271019 Z M121.387632,30.2966422 L121.564527,30.3811143 C121.946142,30.2032261 122.326763,29.9994994 122.72726,29.8504311 C123.350365,29.6735366 123.833347,30.3811143 124.355086,29.9329155 C124.549868,29.7957727 124.718813,29.9994994 124.865893,30.1108037 C125.091483,30.5192509 125.609247,30.4904311 126.001794,30.6027292 C125.805024,30.072046 125.562539,29.3475739 124.883782,29.2631019 C124.615459,29.1438472 124.299434,29.1527913 124.039061,28.9927913 C123.322539,28.203723 122.857446,29.6457106 122.074341,29.2919217 C121.797073,29.5990025 121.453223,29.888195 121.387632,30.2966422 Z M121.564328,34.8249404 C121.861471,35.0763689 122.169545,35.5046919 122.635632,35.4490398 C123.21203,35.7163689 122.969545,36.4805925 123.28557,36.8810894 L123.619483,36.5839466 L123.590664,36.5640708 L123.639359,36.5183565 L123.656254,36.5451888 C123.74967,36.266928 123.619483,35.7740087 123.460477,35.4490398 C123.246813,35.2999714 122.998365,35.4589776 122.792651,35.3178596 C122.763831,35.019723 122.577993,34.8726422 122.364328,34.6868037 C122.214266,34.5735118 122.020477,34.7225801 121.851533,34.713636 L121.564328,34.8249404 Z M127.340726,30.7799217 L127.48085,31.0770646 C127.61998,32.0440211 128.23116,32.9364435 127.898241,33.9968162 C128.177496,34.1945801 128.260974,34.5195491 128.437868,34.778928 L128.483583,34.778928 C128.697247,33.9709776 128.550167,33.1332137 128.437868,32.3252634 C128.520353,31.5888658 127.776999,31.1615366 127.340726,30.7799217 Z M129.79608,24.110605 C129.749372,24.5021578 130.009744,24.8271267 130.288999,25.0238969 C130.390365,24.7923441 130.557322,24.5945801 130.576204,24.336195 C130.492726,23.9347043 130.270117,23.5719714 129.90639,23.3026547 C129.842788,23.5630273 129.76726,23.8134621 129.79608,24.110605 Z M129.82321,28.3526919 C129.75762,28.7889652 130.240601,28.846605 130.446316,29.0880957 C130.613272,29.2918224 130.334018,29.4319466 130.334018,29.6267292 C130.686813,30.0818845 130.894514,30.6026298 130.894514,31.2068534 C131.032651,30.6403938 131.246316,30.1017603 131.321844,29.5154248 C131.283086,29.1049901 130.632154,29.1904559 130.735508,28.7353006 C130.920353,28.2692137 130.69675,27.8140584 130.576502,27.3936857 C130.539732,27.3300832 130.456254,27.1998969 130.381719,27.2376609 C130.213769,27.6172882 129.796378,27.8875988 129.82321,28.3526919 Z M131.09844,26.1390273 L131.581421,27.0781578 C131.795086,27.0503317 131.93521,26.8456112 132.102167,26.6975366 C132.232353,26.3069776 131.888502,26.0555491 131.785148,25.7385304 C131.70167,25.514928 131.785148,25.2187789 131.626142,25.0239963 C131.505893,24.9484683 131.367757,24.8272261 131.228626,24.8649901 L131.09844,26.1390273 Z M131.719558,23.664195 C132.102167,23.8967416 132.53844,24.2316484 132.744154,24.6420832 C133.068129,25.5901578 133.588875,26.4448162 133.971483,27.3670522 C134.110614,28.008046 134.223906,28.5814621 134.397819,29.212518 C134.464403,29.3814621 134.427632,29.7064311 134.687011,29.6776112 C134.761545,28.9710273 134.900676,28.2922696 134.910614,27.5568658 C134.678067,27.2497851 134.372974,27.1205925 134.081794,26.934754 L134.081794,26.869164 C134.120552,26.7121453 134.250738,26.525313 134.444527,26.5531391 C134.528005,26.459723 134.780427,26.3682944 134.670117,26.2003441 C134.184154,25.7153752 134.213968,24.8845677 133.4408,24.7345056 C133.171483,24.6232012 133.106887,24.3439466 133.078067,24.0845677 C132.715334,23.7754994 132.177695,23.6741329 131.719558,23.664195 Z M132.167955,28.7059839 C132.640005,29.1432509 132.475036,29.7753006 132.436278,30.3626298 C132.361744,30.7154248 132.808949,30.5087168 132.94808,30.6965429 C133.237272,31.1238721 133.068328,31.7479714 132.967955,32.2130646 C133.21839,31.8314497 133.505595,31.4965429 133.701372,31.077164 C133.693421,30.9201453 133.897148,30.8436236 133.88721,30.648841 C133.970688,30.3815118 133.656651,30.5007665 133.524477,30.4729404 C133.414167,30.4451143 133.291931,30.3715739 133.330688,30.2215118 C133.571185,29.7574124 133.347583,29.1989031 133.25516,28.7348037 C133.143856,28.3531888 133.301868,27.8403938 133.124974,27.505487 C132.827831,27.9159217 131.942365,28.0083441 132.167955,28.7059839 Z M133.031657,22.1026547 C133.860477,22.9404186 134.463707,23.781164 135.357123,24.5911019 C135.376005,24.2283689 135.328303,23.8934621 135.310415,23.5396733 C135.180229,23.2882447 134.939732,23.1034 134.73203,22.9155739 C134.074142,22.8519714 133.728303,21.9625304 133.031657,22.1026547 Z M135.197819,26.533959 C135.217695,26.6194248 135.254465,26.6929652 135.293223,26.7764435 C135.655955,27.371723 135.999806,27.9858845 136.252229,28.6268783 C136.175707,27.9381826 136.639806,27.084518 136.026639,26.5538348 C135.94316,26.3302323 135.665893,26.4037727 135.487011,26.4226547 L135.197819,26.533959 Z M113.035533,28.2129652 C113.621868,28.0271267 114.188328,27.8224062 114.729943,27.5252634 C115.073794,27.0313503 115.593545,26.5851391 115.669073,26.0087416 C115.24075,26.1289901 114.870067,25.9898596 114.467583,26.1866298 C114.227086,26.6229031 114.078018,27.1158224 113.611931,27.4318472 C113.53839,27.7478721 113.194539,27.9615366 113.035533,28.2129652 Z M113.947831,29.3562199 L114.644477,30.2675242 C115.017148,30.3887665 115.483235,30.3519963 115.80721,30.1393255 L115.556775,29.3114994 C115.063856,29.4963441 114.477521,29.4416857 113.947831,29.3562199 Z M115.110465,22.7723689 L115.379782,23.9996981 C116.030713,23.4700087 116.164875,22.6988286 116.144999,21.8809404 C115.772328,22.3072758 115.556676,22.5686422 115.110465,22.7723689 Z M116.942813,24.9385304 C116.95275,25.1164186 116.997471,25.2833752 117.099831,25.4225056 C117.826291,25.6838721 117.899831,26.5663565 118.571632,26.9012634 C119.007906,27.0980335 119.510763,26.8555491 119.889396,26.6776609 C119.604179,26.3526919 119.278216,26.1290894 118.997968,25.7862323 C118.802191,25.702754 118.606415,25.580518 118.616353,25.3390273 L116.942813,24.9385304 Z M117.519309,29.3299839 C117.835334,29.6907292 118.262664,29.8785553 118.708875,29.9799217 C118.635334,29.8785553 118.755583,29.9799217 118.775459,29.9153255 L118.217943,28.6870025 C117.936701,28.6959466 117.647508,28.7535863 117.389123,28.7347043 C117.408999,28.9384311 117.453719,29.1441453 117.519309,29.3299839 Z M118.505247,23.600195 C118.242887,22.9959714 118.136552,22.2595739 118.061024,21.5917478 C117.782763,21.9256609 117.491583,22.141313 117.232204,22.4831764 C117.111955,23.1708783 118.095806,23.3388286 118.505247,23.600195 Z M120.224999,24.9385304 C121.155185,25.6172882 122.067483,26.4083441 123.367359,26.1201453 C123.460775,26.0555491 123.619782,26.0634994 123.639657,25.9452385 C123.257049,25.702754 122.849595,25.514928 122.457049,25.2923193 L122.010837,24.6423814 L121.807111,24.6423814 C121.304254,24.8083441 120.764626,24.874928 120.224999,24.9385304 Z M122.726962,23.4885925 C123.034042,24.0003938 123.629322,24.3164186 124.103359,24.6702075 C124.494912,24.8461081 125.005719,24.8938099 125.425098,24.7984062 C125.025595,24.4734373 124.661868,24.1017603 124.325968,23.712195 C124.196775,23.5243689 124.166962,23.2928162 123.992055,23.1268534 C123.555782,23.2093379 123.062862,23.1994 122.726962,23.4885925 Z M125.407508,22.5685429 C126.049496,22.9481702 126.865396,23.320841 127.721049,23.1906547 C127.814465,23.1449404 127.973471,23.1548783 127.991359,23.0425801 C127.460676,22.8557478 126.906142,22.3260584 126.346639,22.214754 C126.042539,21.7407168 125.640055,22.3359963 125.25049,22.2982323 C125.25844,22.4095366 125.370738,22.4930149 125.407508,22.5685429 Z M127.499831,21.2564435 C127.9848,21.6291143 128.75598,21.6648907 129.312502,21.480046 C128.959707,21.2842696 128.571136,21.0696112 128.281943,20.8102323 L127.499831,21.2564435 Z M106.482788,22.2793503 C106.564278,22.5685429 106.665645,22.9292882 106.721297,23.2373627 C106.98167,22.6609652 107.496452,22.3995988 107.950614,21.9265553 C107.690241,21.7496609 107.364278,21.6651888 107.077073,21.6095366 L107.077073,21.5916484 C106.871359,21.7953752 106.556328,22.0020832 106.482788,22.2793503 Z M108.171434,25.3393255 L108.590813,24.9119963 C109.010191,24.4836733 109.353049,23.990754 109.417645,23.4421826 C109.120502,23.266282 108.729943,23.3865304 108.442738,23.4888907 C108.340378,24.0911267 108.181372,24.6874 108.171434,25.3393255 Z M108.478117,26.6514248 C109.120104,26.6872012 109.745198,26.8173876 110.263955,26.4546547 L110.785695,24.7821081 C110.618738,24.7711764 110.449794,24.6966422 110.292775,24.7532882 C109.948924,25.5145304 109.260229,26.2688162 108.478117,26.6514248 Z M108.66644,20.717313 C109.085819,21.3304807 109.784452,22.0181826 110.498986,22.213959 C110.415508,21.4318472 109.747682,20.8932137 109.401844,20.2243938 L109.384949,20.0007913 C109.112651,19.7404186 108.788676,19.5625304 108.509421,19.4243938 C108.462713,19.870605 108.584949,20.2979342 108.66644,20.717313 Z M110.933471,26.725164 C111.42639,26.8086422 111.958067,26.725164 112.414216,26.5850398 C113.074092,26.4260335 113.437819,25.7025553 113.65844,25.1351019 L112.831608,25.1351019 L111.939185,26.0086422 C111.585396,26.193487 111.251483,26.4737354 110.933471,26.725164 Z M110.83449,19.8710025 C110.974614,20.5964683 111.280701,21.2563441 111.70008,21.8804435 L111.81039,20.4941081 L110.83449,19.8710025 Z M113.881844,23.4885925 C113.940477,23.0234994 113.743707,22.4828783 113.690042,22.0108286 C113.409794,21.8230025 113.020229,21.8428783 112.731036,21.6570398 C112.749918,22.3904559 113.324328,23.0145553 113.881844,23.4885925 Z M110.677272,8.42354907 C111.52398,8.34802112 112.342862,8.46826957 113.216403,8.39472919 C113.430067,8.48715155 113.652676,8.67199628 113.754042,8.88665466 C113.726216,9.89236895 113.420129,10.8503814 113.373421,11.8819342 C112.9928,12.0389528 112.620129,12.3569652 112.526713,12.7743565 C112.183856,12.8767168 111.874788,13.0814373 111.540875,13.2394497 C111.393794,12.9234248 111.418639,12.4493876 111.680999,12.1890149 C112.043732,11.6772137 112.982862,11.7974621 112.909322,10.988518 C113.151806,10.597959 112.91926,10.0960957 112.92721,9.68764845 C112.833794,9.37957391 112.740378,9.7900087 112.591309,9.7810646 C112.294167,9.84466708 111.989073,9.86354907 111.727707,9.71448075 C111.530937,9.50976025 111.29044,9.34180994 111.234788,9.06454286 C110.974415,8.93336273 110.667334,8.72963603 110.537148,8.45932547 L110.677272,8.42354907 Z M113.326713,6.71979752 C113.726216,6.58961118 114.155533,6.3212882 114.582862,6.45048075 C114.275782,6.75756149 114.033297,7.15607081 113.80075,7.52874162 L112.526713,7.50091553 C112.666837,7.1660087 113.019632,6.88774783 113.326713,6.71979752 Z M117.057297,6.41410808 C117.584999,6.32168572 117.558167,7.00938758 118.041148,7.03522609 C118.126614,7.14653044 118.246862,7.24889068 118.200154,7.416841 C117.9209,7.52913913 117.511459,7.47448075 117.197421,7.54802112 C116.778042,7.31547454 117.047359,6.5900087 116.387483,6.63671677 C116.348726,6.58007081 116.275185,6.46876646 116.368601,6.43299006 C116.572328,6.35646832 116.843632,6.3852882 117.057297,6.41410808 Z M116.721496,8.90494037 C116.954042,8.57997143 117.307831,8.55214534 117.643732,8.48754907 L120.050688,8.53226957 C120.153049,8.62767329 119.95926,8.71015777 119.95926,8.8224559 C119.809198,8.96258013 119.594539,9.0003441 119.466341,9.12854286 C119.149322,9.13748696 119.177148,9.51015777 118.953545,9.66916398 C118.609695,10.0130149 118.107831,9.8540087 117.707334,9.79935031 C117.568204,9.69500249 117.410191,9.55686584 117.344601,9.39885342 L117.232303,9.51015777 C117.371434,10.0318969 117.336651,10.6082944 117.438018,11.1379839 L118.014415,11.5195988 C118.024353,12.3742571 119.027086,12.1407168 119.466341,12.6157478 C119.362986,12.9238224 119.15926,13.1832012 118.936651,13.4435739 C118.580875,13.099723 118.181372,12.8771143 117.754042,12.7270522 C117.715285,12.2261826 117.167707,11.928046 116.86162,11.6776112 C116.778142,10.765313 116.760254,9.83512671 116.611185,8.95164845 L116.721496,8.90494037 Z M114.44085,37.0764683 C114.803583,36.8449155 115.389918,36.7872758 115.473396,36.2486422 C115.326316,36.1373379 115.194142,35.9962199 115.027185,35.9594497 L114.644577,36.070754 C114.673396,35.8481453 114.793645,35.5987043 114.870167,35.3562199 L116.096502,34.955723 C115.927558,35.5132385 115.863955,36.2108783 115.807309,36.8528658 C115.91762,37.8019342 116.057744,38.8155988 116.542713,39.6056609 L115.220974,39.6056609 C115.073893,38.7321205 114.161595,38.099077 114.44085,37.0764683 Z M117.296005,35.9594497 L117.369545,35.9594497 L118.262962,36.7703814 L118.393148,36.7415615 C118.318614,37.6906298 118.271906,38.6218099 118.262962,39.6056609 L117.296005,39.6056609 C117.100229,38.6854124 116.776254,37.7174621 116.813024,36.7236733 C116.97998,36.4722447 117.090291,36.1552261 117.296005,35.9594497 Z M119.28557,36.8532634 C119.462465,36.6217106 119.536005,36.229164 119.8888,36.1844435 C120.141223,36.1923938 120.374763,36.229164 120.560601,36.4070522 C120.886564,36.8154994 120.568552,37.3372385 120.450291,37.7456857 C120.320104,38.3687913 120.094514,39.019723 119.8888,39.6060584 L118.951657,39.6060584 L119.28557,36.8532634 Z M133.394688,36.5640708 C133.598415,36.8254373 133.664005,37.1782323 133.971086,37.4117727 C134.241396,37.0391019 134.304999,36.4617106 134.174813,35.9876733 L133.907483,35.7163689 C134.250341,35.6338845 134.614067,35.6060584 134.956924,35.5414621 C134.809844,36.0353752 134.528601,36.4805925 134.576303,37.0569901 C134.584254,37.894754 134.726365,38.732518 134.799906,39.6060584 L133.777297,39.6060584 C133.404626,38.7871764 133.031955,38.0060584 133.060775,37.0569901 C133.171086,36.8890398 133.24562,36.6942571 133.394688,36.5640708 Z" id="Combined-Shape"></path>
            </g>
        </g>
    </g>
</svg>