<?xml version="1.0" encoding="UTF-8" standalone="no"?>
<svg width="143px" height="40px" viewBox="0 0 143 40" version="1.1" xmlns="http://www.w3.org/2000/svg" xmlns:xlink="http://www.w3.org/1999/xlink">
    <!-- Generator: Sketch 39.1 (31720) - http://www.bohemiancoding.com/sketch -->
    <title>paypal</title>
    <desc>Created with Sketch.</desc>
    <defs></defs>
    <g id="Payments" stroke="none" stroke-width="1" fill="none" fill-rule="evenodd">
        <g id="paypal" transform="translate(-24.000000, 0.000000)" fill="#346275">
            <path d="M52.2378234,4.29754649 C51.7221178,3.26300984 50.9063654,2.40975152 49.8937072,1.76902641 C48.8372921,1.12205032 47.5902223,0.66885451 46.1649996,0.400062505 C44.7147729,0.137521484 43.0395113,0.0187529286 41.0985829,0 L32.1378078,0.00625097265 C31.2064123,0.0187529286 30.2937697,0.743866225 30.0749854,1.64400687 L24.0459184,27.90436 C23.8271343,28.7919988 24.4116006,29.5358649 25.3429961,29.5358649 L29.6342916,29.5358649 C30.5656872,29.5358649 31.4877062,28.8138771 31.6939884,27.90436 L33.1660935,21.5283638 C33.3629993,20.6407251 34.2818928,19.8999844 35.2226648,19.8999844 L36.4509817,19.8999844 C41.6986767,19.8937333 45.7618116,18.8216909 48.6810177,16.6744804 C51.6158512,14.5241444 53.0629524,11.6830755 53.0629524,8.16377559 C53.0598268,6.62290983 52.8066623,5.32895765 52.2378234,4.29754649 L52.2378234,4.29754649 L52.2378234,4.29754649 L52.2378234,4.29754649 Z M42.9832524,12.8770121 C41.6861747,13.8271605 39.8827679,14.3022347 37.5574047,14.3022347 L36.5072406,14.3022347 C35.5727196,14.3022347 35.0007551,13.5646195 35.2039118,12.6644789 L36.4947386,7.0886076 C36.6760169,6.19471792 37.6167889,5.45397718 38.538808,5.46022816 L39.9452778,5.4508517 C41.5861592,5.4508517 42.83948,5.73527113 43.6771108,6.28535709 C44.5053653,6.82919206 44.9210552,7.69495234 44.9148042,8.84200652 C44.9398081,10.5860291 44.2740791,11.9268635 42.9832524,12.8770121 L42.9832524,12.8770121 L42.9832524,12.8770121 L42.9832524,12.8770121 Z M101.97372,9.44835125 L84.8772984,38.3622441 C84.3272125,39.2655103 83.1113975,39.993749 82.1862529,39.993749 L77.7418084,40 C76.8197894,40 76.5166169,39.2655103 77.0792049,38.3653696 L80.8797988,31.7455852 C80.8797988,31.7455852 81.1860966,31.3611502 80.9141792,29.2045632 C80.3297128,25.2945773 77.4105067,8.68260668 77.4105067,8.68260668 C77.2010989,7.78246601 77.7699379,7.04485076 78.6950824,7.04485076 L82.539433,7.03859978 C83.7177422,7.03859978 84.6647651,7.81372089 84.8772984,8.72011249 L86.7900972,20.2437881 L87.5027086,20.2531646 C88.0996769,19.193624 94.244387,8.64822629 94.244387,8.64822629 C94.8319787,7.7574621 96.0196644,7.01047039 96.9448089,7.01047039 C96.9448089,7.01047039 101.073579,7.02297234 102.089363,7.01047039 C103.617727,6.97609002 101.97372,9.44835125 101.97372,9.44835125 L101.97372,9.44835125 L101.97372,9.44835125 L101.97372,9.44835125 Z M130.162499,4.39443663 C129.624915,3.35364901 128.81854,2.51289264 127.79963,1.85654008 C126.755717,1.2064385 125.518023,0.750117208 124.070923,0.487576186 C122.648826,0.234411624 120.951685,0.09689014 119.023259,0.0937646537 L110.049982,0.100015626 C109.115461,0.115643069 108.218445,0.840756365 108.002787,1.73152055 L101.967469,28.0043757 C101.748684,28.8951398 102.348778,29.6327552 103.261421,29.6327552 L107.558967,29.6265041 C108.47161,29.6327552 109.406131,28.9013909 109.62179,28.0012502 L111.075142,21.6221285 C111.287675,20.7344898 112.209694,19.987498 113.137964,19.993749 L114.366281,19.993749 C119.620227,19.993749 123.692738,18.91233 126.624447,16.7713705 C129.521775,14.6054071 130.987628,11.7705891 130.987628,8.2481638 C130.972001,6.71354899 130.706334,5.41647133 130.162499,4.39443663 L130.162499,4.39443663 L130.162499,4.39443663 L130.162499,4.39443663 Z M120.907928,12.9864041 C119.613976,13.9177997 117.807444,14.3928739 115.494582,14.3928739 L114.425665,14.3928739 C113.503646,14.4022504 112.906678,13.6521331 113.11296,12.7582435 L114.413163,7.19174871 C114.603818,6.30098453 115.535213,5.55399281 116.463483,5.56336927 L117.854326,5.55399281 C119.504584,5.56336927 120.742277,5.83528676 121.58616,6.38537272 C122.426915,6.93545866 122.823852,7.79809345 122.833229,8.94202217 C122.842606,10.6860447 122.19563,12.0300047 120.907928,12.9864041 L120.907928,12.9864041 L120.907928,12.9864041 L120.907928,12.9864041 Z M72.9285564,8.05125804 C71.3095534,7.13861541 68.752904,6.68229411 65.258608,6.68229411 C63.5302129,6.68229411 61.8080688,6.81669011 60.0671717,7.0854821 C58.7825961,7.28238787 58.6575765,7.31989373 57.8668279,7.49179559 C56.235323,7.84810126 55.9790331,9.47648069 55.9790331,9.47648069 L55.4539509,11.6361932 C55.1570296,13.0145335 55.9509036,12.9614002 56.2822054,12.8457571 C56.9948168,12.6332239 57.3917537,12.4144398 58.8482313,12.089389 C60.2390736,11.7737146 61.7049277,11.5361775 62.8676093,11.551805 C64.5835025,11.551805 65.8962076,11.7330833 66.7713443,12.1018909 C67.6339791,12.4769495 68.0652964,13.1208001 68.0652964,14.0521956 L67.9902848,14.6585403 L67.3714381,15.03985 C64.9366827,15.1929989 63.1770327,15.4180341 61.0423241,15.7274574 C58.9544979,16.0181279 57.1229617,16.5275825 55.600849,17.2245664 C53.9662185,17.9434286 52.7535291,18.9092045 51.9065217,20.1375215 C51.0876438,21.3720894 50.6782048,22.8691983 50.6782048,24.6257228 C50.6782048,26.2791061 51.2720475,27.6449445 52.4253528,28.7013596 C53.5849089,29.7390218 55.1163983,30.2453509 56.9479344,30.2453509 C58.1074906,30.2390999 59.0045058,30.1484607 59.6421054,29.9953117 L61.7205551,29.279575 L63.480205,28.3044225 L65.099208,27.2355056 L65.1210864,27.2667604 L64.958561,27.9543679 L64.9491846,27.9824973 L64.9491846,27.9887483 C64.7741573,28.8263791 65.2804864,29.5139866 66.0962388,29.5952492 L66.1118663,29.6140022 L66.1868779,29.6140022 L69.4780172,29.6140022 L70.0968639,29.6140022 L70.1531227,29.5889983 C71.0095066,29.4889827 71.812757,28.8013752 72.0002863,27.9824973 L75.1289002,14.4397562 L75.2914256,13.3364589 L75.3664373,12.3019222 C75.3789392,10.3828724 74.5506848,8.96077513 72.9285564,8.05125804 L72.9285564,8.05125804 L72.9285564,8.05125804 L72.9285564,8.05125804 Z M66.0087251,23.2786373 L65.3398707,24.160025 L63.6521069,25.0320362 C62.8582329,25.3539616 62.1049902,25.5164869 61.4080063,25.5164869 C60.3515913,25.5164869 59.5233369,25.363338 58.9638744,25.0507892 L58.13562,23.4411627 C58.13562,22.5691514 58.3356512,21.8784185 58.7638431,21.3470854 L60.5828773,20.1093921 C61.361124,19.8468511 62.3112724,19.6249414 63.4114444,19.4717925 C64.3928477,19.3498985 66.3306505,19.1279888 66.583815,19.1217378 L66.8807364,19.6436943 C66.8244776,19.9406157 66.2743917,22.2409751 66.0087251,23.2786373 L66.0087251,23.2786373 L66.0087251,23.2786373 L66.0087251,23.2786373 Z M150.868859,8.07001089 C149.24048,7.15736834 146.686956,6.69792155 143.202037,6.69792155 C141.473641,6.69792155 139.748372,6.83231755 138.013726,7.11048601 C136.726024,7.29801531 136.59788,7.33864666 135.804006,7.50742303 C134.175627,7.86060322 133.922461,9.49523365 133.922461,9.49523365 L133.397379,11.6518206 C133.103584,13.030161 133.878705,12.9676512 134.241261,12.8613846 C134.956998,12.6488513 135.341433,12.4394437 136.785409,12.1018909 C138.17,11.7893421 139.648356,11.5580559 140.814164,11.564307 C142.523806,11.564307 143.836511,11.7487107 144.708522,12.1175183 C145.577408,12.4925769 146.002475,13.1426785 146.002475,14.0646976 L145.936839,14.6679168 L145.324243,15.0586029 C142.864484,15.2055009 141.101709,15.430536 138.988878,15.7399594 C136.907303,16.0306298 135.069515,16.5369589 133.544278,17.2370683 C131.915898,17.9590561 130.687581,18.9248321 129.84995,20.1562744 C129.021696,21.3908423 128.618508,22.8848258 128.618508,24.6257228 C128.618508,26.2916081 129.2061,27.6574464 130.375032,28.7076105 C131.54084,29.7421472 133.056702,30.2609783 134.888237,30.2609783 C136.041543,30.2484763 136.938558,30.1734646 137.579283,30.0078137 L139.651481,29.3014534 L141.426759,28.326301 L143.03326,27.2448821 L143.061389,27.2792623 L142.914492,27.9731208 L142.898865,27.9856227 L142.905115,27.9981247 C142.711335,28.8357556 143.220789,29.529614 144.045919,29.6046257 L144.052169,29.6202532 L144.127181,29.6202532 L147.427697,29.6202532 L148.034042,29.6202532 L148.099677,29.5983748 C148.946684,29.4952336 149.746809,28.8076262 149.924962,27.9793718 L153.062952,14.4553836 L153.228603,13.3458352 L153.319243,12.3081732 C153.322368,10.3953743 152.50349,8.97952809 150.868859,8.07001089 L150.868859,8.07001089 L150.868859,8.07001089 L150.868859,8.07001089 Z M143.964656,23.2973903 L143.267671,24.1881544 L141.595535,25.0539147 C140.801662,25.3727145 140.045293,25.5383654 139.360811,25.5383654 C138.270016,25.5383654 137.46364,25.382091 136.919804,25.0695422 L136.082174,23.4661666 C136.082174,22.5910299 136.285331,21.9065479 136.69477,21.3658384 C137.110459,20.8563838 137.744934,20.4375684 138.532557,20.1312705 C139.301427,19.8687294 140.251576,19.6561962 141.357998,19.4967964 C142.333151,19.3749024 144.264703,19.1467416 144.514742,19.1436162 L144.817914,19.6655727 C144.774158,19.9624941 144.220945,22.2534771 143.964656,23.2973903 L143.964656,23.2973903 L143.964656,23.2973903 L143.964656,23.2973903 Z M166.958874,1.94092826 L166.971376,1.94405376 L161.226728,27.9824973 L161.020446,28.2950461 C160.686018,29.0264103 159.951528,29.6202532 159.170157,29.6202532 L155.178908,29.6202532 L155.113273,29.529614 C154.350653,29.4139709 153.856827,28.8076262 154.03498,28.0043757 L154.028728,27.9856227 L154.203756,27.2355056 L159.57647,2.81293952 L159.77025,1.96280669 L159.982783,1.63150492 C160.329713,0.912642603 161.039199,0.328176277 161.826822,0.328176277 L165.671173,0.328176277 C166.593191,0.315674321 167.155779,1.04391311 166.958874,1.94092826 L166.958874,1.94092826 L166.958874,1.94092826 L166.958874,1.94092826 Z"></path>
        </g>
    </g>
</svg>